Geologisk-BlackCut.ufo
<glyph name="comma" format="2">
  <advance width="600"/>
  <unicode hex="002C"/>
  <outline>
    <contour>
      <point x="174" y="-416" type="line"/>
      <point x="422" y="-264"/>
      <point x="550" y="-74"/>
      <point x="550" y="140" type="curve" smooth="yes"/>
      <point x="550" y="302"/>
      <point x="448" y="416"/>
      <point x="304" y="416" type="curve" smooth="yes"/>
      <point x="164" y="416"/>
      <point x="66" y="322"/>
      <point x="66" y="186" type="curve" smooth="yes"/>
      <point x="66" y="78"/>
      <point x="166" y="-22"/>
      <point x="284" y="-34" type="curve"/>
      <point x="230" y="-120"/>
      <point x="130" y="-206"/>
      <point x="34" y="-248" type="curve"/>
    </contour>
  </outline>
</glyph>
<glyph name="six" format="2">
  <advance width="1304"/>
  <unicode hex="0036"/>
  <outline>
    <contour>
      <point x="668" y="-30" type="curve" smooth="yes"/>
      <point x="1014" y="-30"/>
      <point x="1222" y="196"/>
      <point x="1222" y="462" type="curve" smooth="yes"/>
      <point x="1222" y="730"/>
      <point x="1050" y="924"/>
      <point x="768" y="924" type="curve" smooth="yes"/>
      <point x="641" y="924"/>
      <point x="549" y="890"/>
      <point x="476" y="833" type="curve"/>
      <point x="521" y="1031"/>
      <point x="756" y="1131"/>
      <point x="1090" y="1093" type="curve"/>
      <point x="1090" y="1419" type="line"/>
      <point x="403" y="1502"/>
      <point x="96" y="1059"/>
      <point x="96" y="612" type="curve" smooth="yes"/>
      <point x="96" y="205"/>
      <point x="331" y="-30"/>
    </contour>
    <contour>
      <point x="668" y="286" type="curve" smooth="yes"/>
      <point x="562" y="286"/>
      <point x="484" y="356"/>
      <point x="484" y="452" type="curve" smooth="yes"/>
      <point x="484" y="548"/>
      <point x="562" y="618"/>
      <point x="668" y="618" type="curve" smooth="yes"/>
      <point x="774" y="618"/>
      <point x="852" y="548"/>
      <point x="852" y="452" type="curve" smooth="yes"/>
      <point x="852" y="356"/>
      <point x="774" y="286"/>
    </contour>
  </outline>
</glyph>
<glyph name="nine" format="2">
  <advance width="1280"/>
  <unicode hex="0039"/>
  <outline>
    <contour>
      <point x="190" y="-19" type="line"/>
      <point x="877" y="-104"/>
      <point x="1184" y="352"/>
      <point x="1184" y="812" type="curve" smooth="yes"/>
      <point x="1184" y="1200"/>
      <point x="954" y="1430"/>
      <point x="624" y="1430" type="curve" smooth="yes"/>
      <point x="285" y="1430"/>
      <point x="82" y="1216"/>
      <point x="82" y="962" type="curve" smooth="yes"/>
      <point x="82" y="694"/>
      <point x="249" y="500"/>
      <point x="524" y="500" type="curve" smooth="yes"/>
      <point x="646" y="500"/>
      <point x="735" y="534"/>
      <point x="804" y="591" type="curve"/>
      <point x="759" y="375"/>
      <point x="524" y="265"/>
      <point x="190" y="307" type="curve"/>
    </contour>
    <contour>
      <point x="624" y="806" type="curve" smooth="yes"/>
      <point x="525" y="806"/>
      <point x="452" y="871"/>
      <point x="452" y="960" type="curve" smooth="yes"/>
      <point x="452" y="1050"/>
      <point x="525" y="1114"/>
      <point x="624" y="1114" type="curve" smooth="yes"/>
      <point x="723" y="1114"/>
      <point x="796" y="1050"/>
      <point x="796" y="960" type="curve" smooth="yes"/>
      <point x="796" y="871"/>
      <point x="723" y="806"/>
    </contour>
  </outline>
</glyph>
<glyph name="semicolon" format="2">
  <advance width="634"/>
  <unicode hex="003B"/>
  <outline>
    <contour>
      <point x="318" y="634" type="curve" smooth="yes"/>
      <point x="444" y="634"/>
      <point x="552" y="718"/>
      <point x="552" y="856" type="curve" smooth="yes"/>
      <point x="552" y="996"/>
      <point x="444" y="1080"/>
      <point x="318" y="1080" type="curve" smooth="yes"/>
      <point x="192" y="1080"/>
      <point x="84" y="996"/>
      <point x="84" y="856" type="curve" smooth="yes"/>
      <point x="84" y="718"/>
      <point x="192" y="634"/>
    </contour>
    <contour>
      <point x="54" y="-396" type="line"/>
      <point x="416" y="-369"/>
      <point x="580" y="-146"/>
      <point x="580" y="120" type="curve" smooth="yes"/>
      <point x="580" y="306"/>
      <point x="454" y="416"/>
      <point x="304" y="416" type="curve" smooth="yes"/>
      <point x="170" y="416"/>
      <point x="76" y="327"/>
      <point x="76" y="191" type="curve" smooth="yes"/>
      <point x="76" y="48"/>
      <point x="209" y="-37"/>
      <point x="337" y="-9" type="curve"/>
      <point x="314" y="-118"/>
      <point x="200" y="-181"/>
      <point x="54" y="-188" type="curve"/>
    </contour>
  </outline>
</glyph>
<glyph name="question" format="2">
  <advance width="1052"/>
  <unicode hex="003F"/>
  <outline>
    <contour>
      <point x="300" y="524" type="curve"/>
      <point x="656" y="524" type="line"/>
      <point x="644" y="664"/>
      <point x="656" y="694"/>
      <point x="750" y="762" type="curve" smooth="yes"/>
      <point x="926" y="886"/>
      <point x="978" y="958"/>
      <point x="978" y="1076" type="curve" smooth="yes"/>
      <point x="978" y="1278"/>
      <point x="770" y="1430"/>
      <point x="490" y="1430" type="curve" smooth="yes"/>
      <point x="356" y="1430"/>
      <point x="178" y="1388"/>
      <point x="94" y="1338" type="curve"/>
      <point x="94" y="990" type="line"/>
      <point x="230" y="1048"/>
      <point x="294" y="1064"/>
      <point x="378" y="1064" type="curve" smooth="yes"/>
      <point x="470" y="1064"/>
      <point x="512" y="1038"/>
      <point x="512" y="982" type="curve" smooth="yes"/>
      <point x="512" y="940"/>
      <point x="496" y="922"/>
      <point x="394" y="850" type="curve" smooth="yes"/>
      <point x="280" y="772"/>
      <point x="252" y="676"/>
    </contour>
    <contour>
      <point x="480" y="-30" type="curve" smooth="yes"/>
      <point x="616" y="-30"/>
      <point x="714" y="64"/>
      <point x="714" y="192" type="curve" smooth="yes"/>
      <point x="714" y="322"/>
      <point x="616" y="416"/>
      <point x="480" y="416" type="curve" smooth="yes"/>
      <point x="344" y="416"/>
      <point x="246" y="322"/>
      <point x="246" y="192" type="curve" smooth="yes"/>
      <point x="246" y="64"/>
      <point x="344" y="-30"/>
    </contour>
  </outline>
</glyph>
<glyph name="at" format="2">
  <advance width="1688"/>
  <unicode hex="0040"/>
  <guideline x="493" y="264" angle="86.6499"/>
  <outline>
    <contour>
      <point x="856" y="-234" type="curve" smooth="yes"/>
      <point x="1043" y="-234"/>
      <point x="1225" y="-183"/>
      <point x="1378" y="-90" type="curve"/>
      <point x="1378" y="116" type="line"/>
      <point x="1229" y="14"/>
      <point x="1047" y="-40"/>
      <point x="852" y="-40" type="curve" smooth="yes"/>
      <point x="510" y="-40"/>
      <point x="278" y="170"/>
      <point x="278" y="480" type="curve" smooth="yes"/>
      <point x="278" y="810"/>
      <point x="530" y="1054"/>
      <point x="868" y="1054" type="curve" smooth="yes"/>
      <point x="1190" y="1054"/>
      <point x="1410" y="860"/>
      <point x="1410" y="576" type="curve" smooth="yes"/>
      <point x="1410" y="428"/>
      <point x="1358" y="346"/>
      <point x="1264" y="346" type="curve" smooth="yes"/>
      <point x="1204" y="346"/>
      <point x="1174" y="382"/>
      <point x="1178" y="450" type="curve" smooth="yes"/>
      <point x="1200" y="840" type="line"/>
      <point x="1014" y="840" type="line"/>
      <point x="1012" y="788" type="line"/>
      <point x="946" y="842"/>
      <point x="880" y="866"/>
      <point x="802" y="866" type="curve" smooth="yes"/>
      <point x="592" y="866"/>
      <point x="440" y="708"/>
      <point x="440" y="492" type="curve" smooth="yes"/>
      <point x="440" y="292"/>
      <point x="576" y="154"/>
      <point x="774" y="154" type="curve" smooth="yes"/>
      <point x="872" y="154"/>
      <point x="944" y="186"/>
      <point x="1018" y="262" type="curve"/>
      <point x="1062" y="192"/>
      <point x="1140" y="154"/>
      <point x="1244" y="154" type="curve" smooth="yes"/>
      <point x="1450" y="154"/>
      <point x="1618" y="344"/>
      <point x="1618" y="576" type="curve" smooth="yes"/>
      <point x="1618" y="970"/>
      <point x="1314" y="1242"/>
      <point x="874" y="1242" type="curve" smooth="yes"/>
      <point x="412" y="1242"/>
      <point x="70" y="920"/>
      <point x="70" y="486" type="curve" smooth="yes"/>
      <point x="70" y="60"/>
      <point x="392" y="-234"/>
    </contour>
    <contour>
      <point x="800" y="366" type="curve" smooth="yes"/>
      <point x="730" y="366"/>
      <point x="688" y="412"/>
      <point x="688" y="490" type="curve" smooth="yes"/>
      <point x="688" y="588"/>
      <point x="744" y="652"/>
      <point x="828" y="652" type="curve" smooth="yes"/>
      <point x="900" y="652"/>
      <point x="942" y="606"/>
      <point x="942" y="528" type="curve" smooth="yes"/>
      <point x="942" y="428"/>
      <point x="886" y="366"/>
    </contour>
  </outline>
</glyph>
<glyph name="A" format="2">
  <advance width="1498"/>
  <unicode hex="0041"/>
  <anchor x="750" y="0" name="bottom"/>
  <anchor x="1435" y="0" name="ogonek"/>
  <anchor x="750" y="1400" name="top"/>
  <anchor x="260" y="1400" name="topleft"/>
  <outline>
    <contour>
      <point x="0" y="0" type="line"/>
      <point x="444" y="0" type="line"/>
      <point x="522" y="250" type="line"/>
      <point x="964" y="250" type="line"/>
      <point x="1042" y="0" type="line"/>
      <point x="1498" y="0" type="line"/>
      <point x="990" y="1400" type="line"/>
      <point x="510" y="1400" type="line"/>
    </contour>
    <contour>
      <point x="608" y="584" type="line"/>
      <point x="744" y="984" type="line"/>
      <point x="876" y="584" type="line"/>
    </contour>
  </outline>
</glyph>
<glyph name="C" format="2">
  <advance width="1319"/>
  <unicode hex="0043"/>
  <anchor x="782" y="0" name="bottom"/>
  <anchor x="782" y="1400" name="top"/>
  <outline>
    <contour>
      <point x="822" y="-30" type="curve" smooth="yes"/>
      <point x="994" y="-30"/>
      <point x="1132" y="2"/>
      <point x="1242" y="52" type="curve"/>
      <point x="1242" y="476" type="line"/>
      <point x="1122" y="398"/>
      <point x="986" y="364"/>
      <point x="858" y="364" type="curve" smooth="yes"/>
      <point x="634" y="364"/>
      <point x="504" y="490"/>
      <point x="504" y="700" type="curve" smooth="yes"/>
      <point x="504" y="906"/>
      <point x="628" y="1036"/>
      <point x="854" y="1036" type="curve" smooth="yes"/>
      <point x="996" y="1036"/>
      <point x="1116" y="996"/>
      <point x="1198" y="918" type="curve"/>
      <point x="1198" y="1356" type="line"/>
      <point x="1100" y="1404"/>
      <point x="984" y="1430"/>
      <point x="828" y="1430" type="curve" smooth="yes"/>
      <point x="392" y="1430"/>
      <point x="80" y="1128"/>
      <point x="80" y="694" type="curve" smooth="yes"/>
      <point x="80" y="248"/>
      <point x="386" y="-30"/>
    </contour>
  </outline>
</glyph>
<glyph name="G" format="2">
  <advance width="1512"/>
  <unicode hex="0047"/>
  <anchor x="850" y="0" name="bottom"/>
  <anchor x="790" y="1400" name="top"/>
  <outline>
    <contour>
      <point x="864" y="-30" type="curve" smooth="yes"/>
      <point x="1024" y="-30"/>
      <point x="1240" y="13"/>
      <point x="1376" y="84" type="curve"/>
      <point x="1376" y="838" type="line"/>
      <point x="800" y="838" type="line"/>
      <point x="720" y="522" type="line"/>
      <point x="1026" y="522" type="line"/>
      <point x="1026" y="334" type="line"/>
      <point x="980" y="324"/>
      <point x="932" y="318"/>
      <point x="890" y="318" type="curve" smooth="yes"/>
      <point x="672" y="318"/>
      <point x="486" y="440"/>
      <point x="486" y="696" type="curve" smooth="yes"/>
      <point x="486" y="928"/>
      <point x="630" y="1068"/>
      <point x="882" y="1068" type="curve" smooth="yes"/>
      <point x="1018" y="1068"/>
      <point x="1128" y="1040"/>
      <point x="1232" y="980" type="curve"/>
      <point x="1232" y="1357" type="line"/>
      <point x="1095" y="1415"/>
      <point x="961" y="1430"/>
      <point x="850" y="1430" type="curve" smooth="yes"/>
      <point x="424" y="1430"/>
      <point x="70" y="1154"/>
      <point x="70" y="700" type="curve" smooth="yes"/>
      <point x="70" y="241"/>
      <point x="438" y="-30"/>
    </contour>
  </outline>
</glyph>
<glyph name="I" format="2">
  <advance width="716"/>
  <unicode hex="0049"/>
  <anchor x="358" y="0" name="bottom"/>
  <anchor x="560" y="0" name="ogonek"/>
  <anchor x="358" y="1400" name="top"/>
  <anchor x="40" y="1400" name="topleft"/>
  <outline>
    <contour>
      <point x="156" y="0" type="line"/>
      <point x="560" y="0" type="line"/>
      <point x="560" y="1400" type="line"/>
      <point x="156" y="1400" type="line"/>
    </contour>
  </outline>
</glyph>
<glyph name="J" format="2">
  <advance width="1100"/>
  <unicode hex="004A"/>
  <anchor x="744" y="1400" name="top"/>
  <outline>
    <contour>
      <point x="424" y="-30" type="curve" smooth="yes"/>
      <point x="756" y="-30"/>
      <point x="946" y="166"/>
      <point x="946" y="448" type="curve" smooth="yes"/>
      <point x="946" y="1400" type="line"/>
      <point x="542" y="1400" type="line"/>
      <point x="542" y="538" type="line" smooth="yes"/>
      <point x="542" y="400"/>
      <point x="474" y="338"/>
      <point x="366" y="338" type="curve" smooth="yes"/>
      <point x="278" y="338"/>
      <point x="186" y="366"/>
      <point x="74" y="418" type="curve"/>
      <point x="74" y="50" type="line"/>
      <point x="171" y="0"/>
      <point x="290" y="-30"/>
    </contour>
  </outline>
</glyph>
<glyph name="Q" format="2">
  <advance width="1668"/>
  <unicode hex="0051"/>
  <outline>
    <contour>
      <point x="1346" y="-124" type="line"/>
      <point x="1574" y="74" type="line"/>
      <point x="1422" y="240" type="line"/>
      <point x="1526" y="364"/>
      <point x="1588" y="526"/>
      <point x="1588" y="708" type="curve" smooth="yes"/>
      <point x="1588" y="1120"/>
      <point x="1254" y="1430"/>
      <point x="834" y="1430" type="curve" smooth="yes"/>
      <point x="402" y="1430"/>
      <point x="80" y="1116"/>
      <point x="80" y="700" type="curve" smooth="yes"/>
      <point x="80" y="276"/>
      <point x="406" y="-30"/>
      <point x="818" y="-30" type="curve" smooth="yes"/>
      <point x="950" y="-30"/>
      <point x="1074" y="0"/>
      <point x="1186" y="54" type="curve"/>
    </contour>
    <contour>
      <point x="834" y="306" type="curve" smooth="yes"/>
      <point x="626" y="306"/>
      <point x="480" y="468"/>
      <point x="480" y="700" type="curve" smooth="yes"/>
      <point x="480" y="932"/>
      <point x="626" y="1078"/>
      <point x="834" y="1078" type="curve" smooth="yes"/>
      <point x="1042" y="1078"/>
      <point x="1204" y="932"/>
      <point x="1204" y="700" type="curve" smooth="yes"/>
      <point x="1204" y="628"/>
      <point x="1190" y="566"/>
      <point x="1166" y="514" type="curve"/>
      <point x="1008" y="692" type="line"/>
      <point x="800" y="512" type="line"/>
      <point x="958" y="326" type="line"/>
      <point x="918" y="312"/>
      <point x="874" y="306"/>
    </contour>
  </outline>
</glyph>
<glyph name="X" format="2">
  <advance width="1424"/>
  <unicode hex="0058"/>
  <outline>
    <contour>
      <point x="14" y="0" type="line"/>
      <point x="494" y="0" type="line"/>
      <point x="706" y="402" type="line"/>
      <point x="918" y="0" type="line"/>
      <point x="1410" y="0" type="line"/>
      <point x="998" y="704" type="line"/>
      <point x="1404" y="1400" type="line"/>
      <point x="928" y="1400" type="line"/>
      <point x="722" y="1020" type="line"/>
      <point x="516" y="1400" type="line"/>
      <point x="28" y="1400" type="line"/>
      <point x="434" y="710" type="line"/>
    </contour>
  </outline>
</glyph>
<glyph name="bracketright" format="2">
  <advance width="732"/>
  <unicode hex="005D"/>
  <outline>
    <contour>
      <point x="582" y="-420" type="line"/>
      <point x="582" y="1400" type="line"/>
      <point x="66" y="1400" type="line"/>
      <point x="66" y="1134" type="line"/>
      <point x="266" y="1134" type="line"/>
      <point x="266" y="-154" type="line"/>
      <point x="66" y="-154" type="line"/>
      <point x="66" y="-420" type="line"/>
    </contour>
  </outline>
</glyph>
<glyph name="asciicircum" format="2">
  <advance width="1296"/>
  <unicode hex="005E"/>
  <outline>
    <contour>
      <point x="130" y="782" type="line"/>
      <point x="464" y="782" type="line"/>
      <point x="648" y="1134" type="line"/>
      <point x="832" y="782" type="line"/>
      <point x="1166" y="782" type="line"/>
      <point x="830" y="1400" type="line"/>
      <point x="466" y="1400" type="line"/>
    </contour>
  </outline>
</glyph>
<glyph name="a" format="2">
  <advance width="1211"/>
  <unicode hex="0061"/>
  <anchor x="578" y="0" name="bottom"/>
  <anchor x="1096" y="0" name="ogonek"/>
  <anchor x="578" y="1040" name="top"/>
  <outline>
    <contour>
      <point x="430" y="-30" type="curve" smooth="yes"/>
      <point x="576" y="-30"/>
      <point x="692" y="18"/>
      <point x="756" y="102" type="curve"/>
      <point x="756" y="0" type="line"/>
      <point x="1096" y="0" type="line"/>
      <point x="1096" y="620" type="line" smooth="yes"/>
      <point x="1096" y="944"/>
      <point x="876" y="1080"/>
      <point x="578" y="1080" type="curve" smooth="yes"/>
      <point x="442" y="1080"/>
      <point x="296" y="1048"/>
      <point x="170" y="985" type="curve"/>
      <point x="170" y="688" type="line"/>
      <point x="260" y="746"/>
      <point x="386" y="780"/>
      <point x="499" y="780" type="curve" smooth="yes"/>
      <point x="668" y="780"/>
      <point x="716" y="710"/>
      <point x="716" y="614" type="curve" smooth="yes"/>
      <point x="716" y="402" type="line" smooth="yes"/>
      <point x="716" y="296"/>
      <point x="640" y="250"/>
      <point x="545" y="250" type="curve" smooth="yes"/>
      <point x="474" y="250"/>
      <point x="426" y="276"/>
      <point x="426" y="331" type="curve" smooth="yes"/>
      <point x="426" y="432"/>
      <point x="588" y="450"/>
      <point x="770" y="410" type="curve"/>
      <point x="768" y="648" type="line"/>
      <point x="310" y="684"/>
      <point x="64" y="556"/>
      <point x="64" y="308" type="curve" smooth="yes"/>
      <point x="64" y="94"/>
      <point x="230" y="-30"/>
    </contour>
  </outline>
</glyph>
<glyph name="f" format="2">
  <advance width="884"/>
  <unicode hex="0066"/>
  <guideline x="61" y="442" angle="51.9728"/>
  <outline>
    <contour>
      <point x="204" y="0" type="line"/>
      <point x="604" y="0" type="line"/>
      <point x="604" y="728" type="line"/>
      <point x="846" y="728" type="line"/>
      <point x="846" y="1040" type="line"/>
      <point x="604" y="1040" type="line"/>
      <point x="604" y="1064" type="line" smooth="yes"/>
      <point x="604" y="1114"/>
      <point x="640" y="1144"/>
      <point x="706" y="1144" type="curve" smooth="yes"/>
      <point x="750" y="1144"/>
      <point x="794" y="1138"/>
      <point x="846" y="1116" type="curve"/>
      <point x="846" y="1424" type="line"/>
      <point x="768" y="1458"/>
      <point x="692" y="1470"/>
      <point x="616" y="1470" type="curve" smooth="yes"/>
      <point x="348" y="1470"/>
      <point x="204" y="1318"/>
      <point x="204" y="1086" type="curve" smooth="yes"/>
    </contour>
    <contour>
      <point x="0" y="728" type="line"/>
      <point x="244" y="728" type="line"/>
      <point x="244" y="1060" type="line"/>
      <point x="0" y="808" type="line"/>
    </contour>
  </outline>
</glyph>
<glyph name="h" format="2">
  <advance width="1368"/>
  <unicode hex="0068"/>
  <anchor x="406" y="1224" name="bar"/>
  <anchor x="328" y="1440" name="top"/>
  <outline>
    <contour>
      <point x="128" y="0" type="line"/>
      <point x="528" y="0" type="line"/>
      <point x="528" y="534" type="line" smooth="yes"/>
      <point x="528" y="644"/>
      <point x="578" y="712"/>
      <point x="686" y="710" type="curve" smooth="yes"/>
      <point x="790" y="708"/>
      <point x="848" y="638"/>
      <point x="848" y="534" type="curve" smooth="yes"/>
      <point x="848" y="0" type="line"/>
      <point x="1248" y="0" type="line"/>
      <point x="1248" y="646" type="line" smooth="yes"/>
      <point x="1248" y="874"/>
      <point x="1102" y="1070"/>
      <point x="804" y="1070" type="curve" smooth="yes"/>
      <point x="652" y="1070"/>
      <point x="532" y="996"/>
      <point x="444" y="896" type="curve"/>
      <point x="528" y="794" type="line"/>
      <point x="528" y="1480" type="line"/>
      <point x="128" y="1294" type="line"/>
    </contour>
  </outline>
</glyph>
<glyph name="r" format="2">
  <advance width="936"/>
  <unicode hex="0072"/>
  <anchor x="328" y="0" name="bottom"/>
  <anchor x="528" y="1040" name="top"/>
  <outline>
    <contour>
      <point x="128" y="0" type="line"/>
      <point x="528" y="0" type="line"/>
      <point x="528" y="506" type="line" smooth="yes"/>
      <point x="528" y="626"/>
      <point x="604" y="680"/>
      <point x="708" y="680" type="curve" smooth="yes"/>
      <point x="764" y="680"/>
      <point x="822" y="668"/>
      <point x="872" y="648" type="curve"/>
      <point x="872" y="1064" type="line"/>
      <point x="848" y="1069"/>
      <point x="820" y="1072"/>
      <point x="792" y="1072" type="curve" smooth="yes"/>
      <point x="684" y="1072"/>
      <point x="580" y="1026"/>
      <point x="528" y="932" type="curve"/>
      <point x="528" y="1100" type="line"/>
      <point x="128" y="914" type="line"/>
    </contour>
  </outline>
</glyph>
<glyph name="s" format="2">
  <advance width="1088"/>
  <unicode hex="0073"/>
  <anchor x="544" y="0" name="bottom"/>
  <anchor x="550" y="1040" name="top"/>
  <outline>
    <contour>
      <point x="524" y="-28" type="curve" smooth="yes"/>
      <point x="806" y="-28"/>
      <point x="1000" y="116"/>
      <point x="1000" y="334" type="curve" smooth="yes"/>
      <point x="1000" y="522"/>
      <point x="884" y="614"/>
      <point x="592" y="676" type="curve" smooth="yes"/>
      <point x="480" y="702"/>
      <point x="460" y="710"/>
      <point x="460" y="740" type="curve" smooth="yes"/>
      <point x="460" y="770"/>
      <point x="508" y="788"/>
      <point x="584" y="788" type="curve" smooth="yes"/>
      <point x="702" y="788"/>
      <point x="852" y="746"/>
      <point x="932" y="684" type="curve"/>
      <point x="946" y="997" type="line"/>
      <point x="841" y="1049"/>
      <point x="709" y="1080"/>
      <point x="570" y="1080" type="curve" smooth="yes"/>
      <point x="298" y="1080"/>
      <point x="108" y="942"/>
      <point x="108" y="728" type="curve" smooth="yes"/>
      <point x="108" y="528"/>
      <point x="239" y="424"/>
      <point x="512" y="374" type="curve" smooth="yes"/>
      <point x="620" y="354"/>
      <point x="650" y="348"/>
      <point x="650" y="318" type="curve" smooth="yes"/>
      <point x="650" y="282"/>
      <point x="606" y="264"/>
      <point x="520" y="264" type="curve" smooth="yes"/>
      <point x="394" y="264"/>
      <point x="236" y="308"/>
      <point x="102" y="378" type="curve"/>
      <point x="102" y="63" type="line"/>
      <point x="216" y="3"/>
      <point x="357" y="-28"/>
    </contour>
  </outline>
</glyph>
<glyph name="u" format="2">
  <advance width="1328"/>
  <unicode hex="0075"/>
  <anchor x="658" y="0" name="bottom"/>
  <anchor x="1200" y="0" name="descender"/>
  <anchor x="1200" y="1040" name="horn"/>
  <anchor x="1200" y="0" name="ogonek"/>
  <anchor x="670" y="1040" name="top"/>
  <outline>
    <contour>
      <point x="542" y="-30" type="curve" smooth="yes"/>
      <point x="716" y="-30"/>
      <point x="802" y="40"/>
      <point x="860" y="102" type="curve"/>
      <point x="860" y="0" type="line"/>
      <point x="1200" y="0" type="line"/>
      <point x="1200" y="1100" type="line"/>
      <point x="800" y="914" type="line"/>
      <point x="800" y="482" type="line" smooth="yes"/>
      <point x="800" y="392"/>
      <point x="748" y="330"/>
      <point x="658" y="330" type="curve" smooth="yes"/>
      <point x="564" y="330"/>
      <point x="520" y="386"/>
      <point x="520" y="482" type="curve" smooth="yes"/>
      <point x="520" y="1100" type="line"/>
      <point x="120" y="914" type="line"/>
      <point x="120" y="428" type="line" smooth="yes"/>
      <point x="120" y="142"/>
      <point x="254" y="-30"/>
    </contour>
  </outline>
</glyph>
<glyph name="y" format="2">
  <advance width="1236"/>
  <unicode hex="0079"/>
  <anchor x="1116" y="0" name="bottom"/>
  <anchor x="618" y="1040" name="top"/>
  <outline>
    <contour>
      <point x="324" y="-446" type="curve" smooth="yes"/>
      <point x="524" y="-446"/>
      <point x="706" y="-348"/>
      <point x="816" y="-74" type="curve" smooth="yes"/>
      <point x="1236" y="1040" type="line"/>
      <point x="814" y="1040" type="line"/>
      <point x="626" y="386" type="line"/>
      <point x="432" y="1040" type="line"/>
      <point x="0" y="1040" type="line"/>
      <point x="400" y="4" type="line"/>
      <point x="396" y="-12" type="line" smooth="yes"/>
      <point x="380" y="-70"/>
      <point x="324" y="-88"/>
      <point x="264" y="-88" type="curve" smooth="yes"/>
      <point x="214" y="-88"/>
      <point x="156" y="-74"/>
      <point x="112" y="-52" type="curve"/>
      <point x="112" y="-417" type="line"/>
      <point x="177" y="-437"/>
      <point x="250" y="-446"/>
    </contour>
  </outline>
</glyph>
<glyph name="z" format="2">
  <advance width="1070"/>
  <unicode hex="007A"/>
  <anchor x="536" y="1040" name="top"/>
  <outline>
    <contour>
      <point x="80" y="0" type="line"/>
      <point x="950" y="0" type="line"/>
      <point x="1030" y="350" type="line"/>
      <point x="606" y="350" type="line"/>
      <point x="982" y="780" type="line"/>
      <point x="982" y="1040" type="line"/>
      <point x="98" y="1040" type="line"/>
      <point x="98" y="690" type="line"/>
      <point x="486" y="690" type="line"/>
      <point x="80" y="260" type="line"/>
    </contour>
  </outline>
</glyph>
<glyph name="braceright" format="2">
  <advance width="732"/>
  <unicode hex="007D"/>
  <outline>
    <contour>
      <point x="66" y="-426" type="line"/>
      <point x="436" y="-454"/>
      <point x="592" y="-324"/>
      <point x="536" y="-10" type="curve" smooth="yes"/>
      <point x="492" y="234" type="line" smooth="yes"/>
      <point x="476" y="326"/>
      <point x="516" y="358"/>
      <point x="666" y="358" type="curve"/>
      <point x="666" y="624" type="line"/>
      <point x="516" y="624"/>
      <point x="476" y="656"/>
      <point x="492" y="748" type="curve" smooth="yes"/>
      <point x="536" y="988" type="line" smooth="yes"/>
      <point x="594" y="1304"/>
      <point x="436" y="1434"/>
      <point x="66" y="1406" type="curve"/>
      <point x="66" y="1140" type="line"/>
      <point x="190" y="1148"/>
      <point x="236" y="1110"/>
      <point x="220" y="1016" type="curve" smooth="yes"/>
      <point x="170" y="738" type="line" smooth="yes"/>
      <point x="146" y="608"/>
      <point x="208" y="514"/>
      <point x="338" y="492" type="curve"/>
      <point x="338" y="490" type="line"/>
      <point x="202" y="464"/>
      <point x="142" y="370"/>
      <point x="166" y="242" type="curve" smooth="yes"/>
      <point x="220" y="-36" type="line" smooth="yes"/>
      <point x="238" y="-126"/>
      <point x="190" y="-166"/>
      <point x="66" y="-160" type="curve"/>
    </contour>
  </outline>
</glyph>
<glyph name="asciitilde" format="2">
  <advance width="1296"/>
  <unicode hex="007E"/>
  <outline>
    <contour>
      <point x="926" y="460" type="curve" smooth="yes"/>
      <point x="1048" y="460"/>
      <point x="1129" y="487"/>
      <point x="1228" y="554" type="curve"/>
      <point x="1228" y="834" type="line"/>
      <point x="1123" y="765"/>
      <point x="1046" y="732"/>
      <point x="926" y="732" type="curve" smooth="yes"/>
      <point x="764" y="732"/>
      <point x="576" y="880"/>
      <point x="370" y="880" type="curve" smooth="yes"/>
      <point x="248" y="880"/>
      <point x="167" y="853"/>
      <point x="68" y="786" type="curve"/>
      <point x="68" y="506" type="line"/>
      <point x="170" y="574"/>
      <point x="248" y="608"/>
      <point x="370" y="608" type="curve" smooth="yes"/>
      <point x="532" y="608"/>
      <point x="720" y="460"/>
    </contour>
  </outline>
</glyph>
<glyph name="cent" format="2">
  <advance width="1296"/>
  <unicode hex="00A2"/>
  <outline>
    <contour>
      <point x="610" y="-160" type="line"/>
      <point x="870" y="-160" type="line"/>
      <point x="870" y="10" type="line"/>
      <point x="942" y="20"/>
      <point x="1008" y="38"/>
      <point x="1066" y="68" type="curve"/>
      <point x="1066" y="382" type="line"/>
      <point x="998" y="352"/>
      <point x="934" y="336"/>
      <point x="864" y="330" type="curve"/>
      <point x="864" y="712" type="line"/>
      <point x="922" y="706"/>
      <point x="984" y="694"/>
      <point x="1038" y="670" type="curve"/>
      <point x="1038" y="980" type="line"/>
      <point x="986" y="1004"/>
      <point x="928" y="1022"/>
      <point x="870" y="1030" type="curve"/>
      <point x="870" y="1200" type="line"/>
      <point x="610" y="1200" type="line"/>
      <point x="610" y="1028" type="line"/>
      <point x="358" y="980"/>
      <point x="190" y="778"/>
      <point x="190" y="520" type="curve" smooth="yes"/>
      <point x="190" y="266"/>
      <point x="352" y="56"/>
      <point x="610" y="12" type="curve"/>
    </contour>
    <contour>
      <point x="616" y="340" type="line"/>
      <point x="544" y="352"/>
      <point x="490" y="422"/>
      <point x="490" y="520" type="curve" smooth="yes"/>
      <point x="490" y="616"/>
      <point x="542" y="698"/>
      <point x="616" y="702" type="curve"/>
    </contour>
  </outline>
</glyph>
<glyph name="ordfeminine" format="2">
  <advance width="858"/>
  <unicode hex="00AA"/>
  <guideline x="211" y="450" angle="0"/>
  <anchor x="412" y="722" name="bottom"/>
  <anchor x="756" y="722" name="ogonek"/>
  <anchor x="412" y="1398" name="top"/>
  <outline>
    <contour>
      <point x="316" y="702" type="curve" smooth="yes"/>
      <point x="412" y="702"/>
      <point x="492" y="734"/>
      <point x="534" y="788" type="curve"/>
      <point x="534" y="722" type="line"/>
      <point x="756" y="722" type="line"/>
      <point x="756" y="1126" type="line" smooth="yes"/>
      <point x="756" y="1336"/>
      <point x="624" y="1426"/>
      <point x="412" y="1426" type="curve" smooth="yes"/>
      <point x="282" y="1426"/>
      <point x="144" y="1380"/>
      <point x="46" y="1288" type="curve"/>
      <point x="142" y="1450" type="line"/>
      <point x="142" y="1170" type="line"/>
      <point x="202" y="1208"/>
      <point x="290" y="1230"/>
      <point x="360" y="1230" type="curve" smooth="yes"/>
      <point x="486" y="1230"/>
      <point x="508" y="1178"/>
      <point x="508" y="1122" type="curve" smooth="yes"/>
      <point x="508" y="984" type="line" smooth="yes"/>
      <point x="508" y="916"/>
      <point x="456" y="884"/>
      <point x="392" y="884" type="curve" smooth="yes"/>
      <point x="340" y="884"/>
      <point x="306" y="902"/>
      <point x="306" y="936" type="curve" smooth="yes"/>
      <point x="306" y="1004"/>
      <point x="420" y="1014"/>
      <point x="544" y="988" type="curve"/>
      <point x="544" y="1144" type="line"/>
      <point x="234" y="1168"/>
      <point x="72" y="1082"/>
      <point x="72" y="922" type="curve" smooth="yes"/>
      <point x="72" y="784"/>
      <point x="182" y="702"/>
    </contour>
  </outline>
</glyph>
<glyph name="paragraph" format="2">
  <advance width="1444"/>
  <unicode hex="00B6"/>
  <outline>
    <contour>
      <point x="558" y="-420" type="line"/>
      <point x="818" y="-420" type="line"/>
      <point x="818" y="1186" type="line"/>
      <point x="950" y="1186" type="line"/>
      <point x="950" y="-420" type="line"/>
      <point x="1210" y="-420" type="line"/>
      <point x="1210" y="1186" type="line"/>
      <point x="1414" y="1186" type="line"/>
      <point x="1414" y="1400" type="line"/>
      <point x="610" y="1400" type="line" smooth="yes"/>
      <point x="272" y="1400"/>
      <point x="40" y="1218"/>
      <point x="40" y="932" type="curve" smooth="yes"/>
      <point x="40" y="646"/>
      <point x="272" y="464"/>
      <point x="610" y="464" type="curve"/>
      <point x="558" y="510" type="line"/>
    </contour>
  </outline>
</glyph>
<glyph name="onesuperior" format="2">
  <advance width="638"/>
  <unicode hex="00B9"/>
  <outline>
    <contour>
      <point x="274" y="722" type="line"/>
      <point x="512" y="722" type="line"/>
      <point x="512" y="1652" type="line"/>
      <point x="496" y="1652" type="line"/>
      <point x="78" y="1512" type="line"/>
      <point x="78" y="1282" type="line"/>
      <point x="274" y="1344" type="line"/>
    </contour>
  </outline>
</glyph>
<glyph name="ordmasculine" format="2">
  <advance width="892"/>
  <unicode hex="00BA"/>
  <anchor x="446" y="722" name="bottom"/>
  <anchor x="714" y="1398" name="horn"/>
  <anchor x="578" y="722" name="ogonek"/>
  <anchor x="446" y="1398" name="top"/>
  <outline>
    <contour>
      <point x="446" y="702" type="curve" smooth="yes"/>
      <point x="678" y="702"/>
      <point x="838" y="874"/>
      <point x="838" y="1060" type="curve" smooth="yes"/>
      <point x="838" y="1254"/>
      <point x="678" y="1418"/>
      <point x="446" y="1418" type="curve" smooth="yes"/>
      <point x="214" y="1418"/>
      <point x="54" y="1246"/>
      <point x="54" y="1060" type="curve" smooth="yes"/>
      <point x="54" y="866"/>
      <point x="214" y="702"/>
    </contour>
    <contour>
      <point x="446" y="924" type="curve" smooth="yes"/>
      <point x="368" y="924"/>
      <point x="306" y="976"/>
      <point x="306" y="1060" type="curve" smooth="yes"/>
      <point x="306" y="1144"/>
      <point x="366" y="1196"/>
      <point x="446" y="1196" type="curve" smooth="yes"/>
      <point x="524" y="1196"/>
      <point x="584" y="1144"/>
      <point x="584" y="1060" type="curve" smooth="yes"/>
      <point x="584" y="976"/>
      <point x="524" y="924"/>
    </contour>
  </outline>
</glyph>
<glyph name="Oslash" format="2">
  <advance width="1668"/>
  <unicode hex="00D8"/>
  <anchor x="834" y="1400" name="top"/>
  <outline>
    <contour>
      <point x="336" y="-124" type="line"/>
      <point x="482" y="54" type="line"/>
      <point x="586" y="0"/>
      <point x="706" y="-30"/>
      <point x="834" y="-30" type="curve" smooth="yes"/>
      <point x="1262" y="-30"/>
      <point x="1588" y="286"/>
      <point x="1588" y="700" type="curve" smooth="yes"/>
      <point x="1588" y="884"/>
      <point x="1526" y="1056"/>
      <point x="1414" y="1184" type="curve"/>
      <point x="1540" y="1334" type="line"/>
      <point x="1306" y="1540" type="line"/>
      <point x="1156" y="1358" type="line"/>
      <point x="1068" y="1402"/>
      <point x="960" y="1430"/>
      <point x="834" y="1430" type="curve" smooth="yes"/>
      <point x="404" y="1430"/>
      <point x="80" y="1114"/>
      <point x="80" y="700" type="curve" smooth="yes"/>
      <point x="80" y="524"/>
      <point x="134" y="366"/>
      <point x="232" y="240" type="curve"/>
      <point x="102" y="84" type="line"/>
    </contour>
    <contour>
      <point x="516" y="572" type="line"/>
      <point x="502" y="610"/>
      <point x="494" y="652"/>
      <point x="494" y="700" type="curve" smooth="yes"/>
      <point x="494" y="924"/>
      <point x="634" y="1066"/>
      <point x="834" y="1066" type="curve" smooth="yes"/>
      <point x="860" y="1066"/>
      <point x="888" y="1062"/>
      <point x="914" y="1054" type="curve"/>
    </contour>
    <contour>
      <point x="834" y="334" type="curve" smooth="yes"/>
      <point x="790" y="334"/>
      <point x="752" y="342"/>
      <point x="716" y="354" type="curve"/>
      <point x="1142" y="868" type="line"/>
      <point x="1164" y="818"/>
      <point x="1174" y="758"/>
      <point x="1174" y="700" type="curve" smooth="yes"/>
      <point x="1174" y="480"/>
      <point x="1040" y="334"/>
    </contour>
  </outline>
</glyph>
<glyph name="Thorn" format="2">
  <advance width="1380"/>
  <unicode hex="00DE"/>
  <outline>
    <contour>
      <point x="156" y="0" type="line"/>
      <point x="560" y="0" type="line"/>
      <point x="560" y="236" type="line"/>
      <point x="762" y="236" type="line" smooth="yes"/>
      <point x="1122" y="236"/>
      <point x="1330" y="412"/>
      <point x="1330" y="720" type="curve" smooth="yes"/>
      <point x="1330" y="1026"/>
      <point x="1094" y="1204"/>
      <point x="772" y="1204" type="curve" smooth="yes"/>
      <point x="560" y="1204" type="line"/>
      <point x="560" y="1400" type="line"/>
      <point x="156" y="1400" type="line"/>
    </contour>
    <contour>
      <point x="560" y="570" type="line"/>
      <point x="560" y="860" type="line"/>
      <point x="748" y="860" type="line" smooth="yes"/>
      <point x="852" y="860"/>
      <point x="926" y="826"/>
      <point x="926" y="714" type="curve" smooth="yes"/>
      <point x="926" y="606"/>
      <point x="858" y="570"/>
      <point x="746" y="570" type="curve" smooth="yes"/>
    </contour>
  </outline>
</glyph>
<glyph name="ae" format="2">
  <advance width="1894"/>
  <unicode hex="00E6"/>
  <anchor x="952" y="1040" name="top"/>
  <outline>
    <contour>
      <point x="470" y="-30" type="curve" smooth="yes"/>
      <point x="682" y="-30"/>
      <point x="868" y="78"/>
      <point x="920" y="276" type="curve"/>
      <point x="804" y="268" type="line"/>
      <point x="908" y="68"/>
      <point x="1102" y="-30"/>
      <point x="1334" y="-30" type="curve" smooth="yes"/>
      <point x="1476" y="-30"/>
      <point x="1628" y="4"/>
      <point x="1732" y="54" type="curve"/>
      <point x="1732" y="362" type="line"/>
      <point x="1604" y="298"/>
      <point x="1484" y="270"/>
      <point x="1346" y="270" type="curve" smooth="yes"/>
      <point x="1214" y="270"/>
      <point x="1116" y="326"/>
      <point x="1108" y="408" type="curve"/>
      <point x="1830" y="408" type="line"/>
      <point x="1902" y="782"/>
      <point x="1690" y="1070"/>
      <point x="1344" y="1070" type="curve" smooth="yes"/>
      <point x="1172" y="1070"/>
      <point x="1016" y="994"/>
      <point x="886" y="854" type="curve"/>
      <point x="1048" y="834" type="line"/>
      <point x="964" y="1008"/>
      <point x="792" y="1080"/>
      <point x="578" y="1080" type="curve" smooth="yes"/>
      <point x="444" y="1080"/>
      <point x="298" y="1048"/>
      <point x="172" y="986" type="curve"/>
      <point x="172" y="688" type="line"/>
      <point x="260" y="746"/>
      <point x="398" y="780"/>
      <point x="496" y="780" type="curve" smooth="yes"/>
      <point x="668" y="780"/>
      <point x="718" y="716"/>
      <point x="718" y="626" type="curve" smooth="yes"/>
      <point x="716" y="402" type="line" smooth="yes"/>
      <point x="716" y="290"/>
      <point x="636" y="250"/>
      <point x="542" y="250" type="curve" smooth="yes"/>
      <point x="470" y="250"/>
      <point x="426" y="276"/>
      <point x="426" y="328" type="curve" smooth="yes"/>
      <point x="426" y="430"/>
      <point x="584" y="450"/>
      <point x="762" y="412" type="curve"/>
      <point x="766" y="648" type="line"/>
      <point x="308" y="686"/>
      <point x="64" y="558"/>
      <point x="64" y="308" type="curve" smooth="yes"/>
      <point x="64" y="94"/>
      <point x="230" y="-30"/>
    </contour>
    <contour>
      <point x="1134" y="668" type="line"/>
      <point x="1138" y="740"/>
      <point x="1210" y="790"/>
      <point x="1310" y="790" type="curve" smooth="yes"/>
      <point x="1400" y="790"/>
      <point x="1466" y="740"/>
      <point x="1466" y="668" type="curve"/>
    </contour>
  </outline>
</glyph>
<glyph name="divide" format="2">
  <advance width="1296"/>
  <unicode hex="00F7"/>
  <outline>
    <contour>
      <point x="68" y="536" type="line"/>
      <point x="1268" y="536" type="line"/>
      <point x="1268" y="804" type="line"/>
      <point x="68" y="804" type="line"/>
    </contour>
    <contour>
      <point x="668" y="90" type="curve" smooth="yes"/>
      <point x="770" y="90"/>
      <point x="852" y="174"/>
      <point x="852" y="270" type="curve" smooth="yes"/>
      <point x="852" y="368"/>
      <point x="770" y="452"/>
      <point x="668" y="452" type="curve" smooth="yes"/>
      <point x="568" y="452"/>
      <point x="484" y="368"/>
      <point x="484" y="270" type="curve" smooth="yes"/>
      <point x="484" y="174"/>
      <point x="568" y="90"/>
    </contour>
    <contour>
      <point x="668" y="886" type="curve" smooth="yes"/>
      <point x="770" y="886"/>
      <point x="852" y="970"/>
      <point x="852" y="1066" type="curve" smooth="yes"/>
      <point x="852" y="1164"/>
      <point x="770" y="1248"/>
      <point x="668" y="1248" type="curve" smooth="yes"/>
      <point x="568" y="1248"/>
      <point x="484" y="1164"/>
      <point x="484" y="1066" type="curve" smooth="yes"/>
      <point x="484" y="970"/>
      <point x="568" y="886"/>
    </contour>
  </outline>
</glyph>
<glyph name="oslash" format="2">
  <advance width="1276"/>
  <unicode hex="00F8"/>
  <anchor x="638" y="1040" name="top"/>
  <outline>
    <contour>
      <point x="264" y="-138" type="line"/>
      <point x="392" y="16" type="line"/>
      <point x="464" y="-14"/>
      <point x="548" y="-30"/>
      <point x="638" y="-30" type="curve" smooth="yes"/>
      <point x="986" y="-30"/>
      <point x="1226" y="232"/>
      <point x="1226" y="520" type="curve" smooth="yes"/>
      <point x="1226" y="654"/>
      <point x="1178" y="778"/>
      <point x="1094" y="874" type="curve"/>
      <point x="1204" y="1008" type="line"/>
      <point x="1010" y="1180" type="line"/>
      <point x="882" y="1024" type="line"/>
      <point x="810" y="1054"/>
      <point x="728" y="1070"/>
      <point x="638" y="1070" type="curve" smooth="yes"/>
      <point x="290" y="1070"/>
      <point x="50" y="808"/>
      <point x="50" y="520" type="curve" smooth="yes"/>
      <point x="50" y="386"/>
      <point x="98" y="264"/>
      <point x="180" y="168" type="curve"/>
      <point x="70" y="34" type="line"/>
    </contour>
    <contour>
      <point x="420" y="438" type="line"/>
      <point x="414" y="460"/>
      <point x="412" y="484"/>
      <point x="412" y="510" type="curve" smooth="yes"/>
      <point x="412" y="662"/>
      <point x="514" y="758"/>
      <point x="650" y="758" type="curve" smooth="yes"/>
      <point x="660" y="758"/>
      <point x="672" y="758"/>
      <point x="682" y="756" type="curve"/>
    </contour>
    <contour>
      <point x="626" y="282" type="curve" smooth="yes"/>
      <point x="614" y="282"/>
      <point x="602" y="282"/>
      <point x="590" y="284" type="curve"/>
      <point x="856" y="606" type="line"/>
      <point x="862" y="582"/>
      <point x="864" y="556"/>
      <point x="864" y="530" type="curve" smooth="yes"/>
      <point x="864" y="376"/>
      <point x="760" y="282"/>
    </contour>
  </outline>
</glyph>
<glyph name="lslash" format="2">
  <advance width="816"/>
  <unicode hex="0142"/>
  <anchor x="408" y="0" name="bottom"/>
  <anchor x="608" y="1440" name="caron"/>
  <anchor x="408" y="1440" name="top"/>
  <outline>
    <contour>
      <point x="16" y="340" type="line"/>
      <point x="408" y="530" type="line"/>
      <point x="408" y="490" type="line"/>
      <point x="800" y="672" type="line"/>
      <point x="800" y="1020" type="line"/>
      <point x="408" y="838" type="line"/>
      <point x="408" y="878" type="line"/>
      <point x="16" y="688" type="line"/>
    </contour>
    <component base="l" xOffset="80"/>
  </outline>
</glyph>
<glyph name="OE" format="2">
  <advance width="2314"/>
  <unicode hex="0152"/>
  <outline>
    <contour>
      <point x="814" y="-30" type="curve" smooth="yes"/>
      <point x="1002" y="-30"/>
      <point x="1168" y="34"/>
      <point x="1298" y="140" type="curve"/>
      <point x="1204" y="254" type="line"/>
      <point x="1204" y="0" type="line"/>
      <point x="2170" y="0" type="line"/>
      <point x="2250" y="352" type="line"/>
      <point x="1568" y="352" type="line"/>
      <point x="1568" y="552" type="line"/>
      <point x="2088" y="552" type="line"/>
      <point x="2088" y="870" type="line"/>
      <point x="1568" y="870" type="line"/>
      <point x="1568" y="1052" type="line"/>
      <point x="2202" y="1052" type="line"/>
      <point x="2202" y="1400" type="line"/>
      <point x="1204" y="1400" type="line"/>
      <point x="1204" y="1144" type="line"/>
      <point x="1298" y="1256" type="line"/>
      <point x="1168" y="1366"/>
      <point x="1002" y="1430"/>
      <point x="814" y="1430" type="curve" smooth="yes"/>
      <point x="388" y="1430"/>
      <point x="80" y="1116"/>
      <point x="80" y="700" type="curve" smooth="yes"/>
      <point x="80" y="286"/>
      <point x="388" y="-30"/>
    </contour>
    <contour>
      <point x="834" y="348" type="curve" smooth="yes"/>
      <point x="640" y="348"/>
      <point x="504" y="484"/>
      <point x="504" y="700" type="curve" smooth="yes"/>
      <point x="504" y="916"/>
      <point x="640" y="1052"/>
      <point x="834" y="1052" type="curve" smooth="yes"/>
      <point x="1028" y="1052"/>
      <point x="1164" y="916"/>
      <point x="1164" y="700" type="curve" smooth="yes"/>
      <point x="1164" y="484"/>
      <point x="1028" y="348"/>
    </contour>
  </outline>
</glyph>
<glyph name="Schwa" format="2">
  <advance width="1608"/>
  <unicode hex="018F"/>
  <outline>
    <contour>
      <point x="778" y="-30" type="curve" smooth="yes"/>
      <point x="1248" y="-30"/>
      <point x="1538" y="306"/>
      <point x="1538" y="700" type="curve" smooth="yes"/>
      <point x="1538" y="1168"/>
      <point x="1216" y="1430"/>
      <point x="750" y="1430" type="curve" smooth="yes"/>
      <point x="565" y="1430"/>
      <point x="417" y="1386"/>
      <point x="300" y="1326" type="curve"/>
      <point x="300" y="924" type="line"/>
      <point x="406" y="1012"/>
      <point x="566" y="1056"/>
      <point x="724" y="1056" type="curve" smooth="yes"/>
      <point x="990" y="1056"/>
      <point x="1124" y="920"/>
      <point x="1124" y="700" type="curve" smooth="yes"/>
      <point x="1124" y="458"/>
      <point x="1020" y="308"/>
      <point x="780" y="308" type="curve" smooth="yes"/>
      <point x="580" y="308"/>
      <point x="450" y="428"/>
      <point x="466" y="684" type="curve"/>
      <point x="296" y="526" type="line"/>
      <point x="1290" y="526" type="line"/>
      <point x="1296" y="822" type="line"/>
      <point x="80" y="822" type="line"/>
      <point x="10" y="290"/>
      <point x="304" y="-30"/>
    </contour>
  </outline>
</glyph>
<glyph name="florin" format="2">
  <advance width="1296"/>
  <unicode hex="0192"/>
  <outline>
    <contour>
      <point x="182" y="-450" type="curve" smooth="yes"/>
      <point x="438" y="-450"/>
      <point x="618" y="-296"/>
      <point x="690" y="28" type="curve" smooth="yes"/>
      <point x="888" y="926" type="line" smooth="yes"/>
      <point x="916" y="1056"/>
      <point x="978" y="1100"/>
      <point x="1060" y="1100" type="curve" smooth="yes"/>
      <point x="1104" y="1100"/>
      <point x="1152" y="1092"/>
      <point x="1204" y="1074" type="curve"/>
      <point x="1204" y="1396" type="line"/>
      <point x="1134" y="1420"/>
      <point x="1068" y="1430"/>
      <point x="1002" y="1430" type="curve" smooth="yes"/>
      <point x="736" y="1430"/>
      <point x="566" y="1276"/>
      <point x="494" y="952" type="curve" smooth="yes"/>
      <point x="294" y="52" type="line" smooth="yes"/>
      <point x="266" y="-76"/>
      <point x="206" y="-120"/>
      <point x="124" y="-120" type="curve" smooth="yes"/>
      <point x="80" y="-120"/>
      <point x="32" y="-112"/>
      <point x="-20" y="-94" type="curve"/>
      <point x="-20" y="-416" type="line"/>
      <point x="50" y="-440"/>
      <point x="116" y="-450"/>
    </contour>
    <contour>
      <point x="126" y="560" type="line"/>
      <point x="1166" y="560" type="line"/>
      <point x="1166" y="810" type="line"/>
      <point x="126" y="810" type="line"/>
    </contour>
  </outline>
</glyph>
<glyph name="Oogonek" format="2">
  <advance width="1668"/>
  <unicode hex="01EA"/>
  <anchor x="834" y="1400" name="top"/>
  <outline>
    <contour>
      <point x="828" y="-145" type="curve" smooth="yes"/>
      <point x="828" y="-83"/>
      <point x="878" y="-36"/>
      <point x="982" y="-17" type="curve"/>
      <point x="1005" y="101" type="line"/>
      <point x="755" y="73"/>
      <point x="594" y="-52"/>
      <point x="594" y="-219" type="curve" smooth="yes"/>
      <point x="594" y="-354"/>
      <point x="698" y="-450"/>
      <point x="844" y="-450" type="curve" smooth="yes"/>
      <point x="916" y="-450"/>
      <point x="989" y="-432"/>
      <point x="1052" y="-400" type="curve"/>
      <point x="1052" y="-174" type="line"/>
      <point x="1013" y="-204"/>
      <point x="960" y="-222"/>
      <point x="910" y="-222" type="curve" smooth="yes"/>
      <point x="860" y="-222"/>
      <point x="828" y="-192"/>
    </contour>
    <contour>
      <point x="834" y="-30" type="curve" smooth="yes"/>
      <point x="1270" y="-30"/>
      <point x="1588" y="286"/>
      <point x="1588" y="700" type="curve" smooth="yes"/>
      <point x="1588" y="1108"/>
      <point x="1270" y="1430"/>
      <point x="834" y="1430" type="curve" smooth="yes"/>
      <point x="396" y="1430"/>
      <point x="80" y="1116"/>
      <point x="80" y="700" type="curve" smooth="yes"/>
      <point x="80" y="286"/>
      <point x="396" y="-30"/>
    </contour>
    <contour>
      <point x="834" y="348" type="curve" smooth="yes"/>
      <point x="640" y="348"/>
      <point x="504" y="484"/>
      <point x="504" y="700" type="curve" smooth="yes"/>
      <point x="504" y="916"/>
      <point x="640" y="1052"/>
      <point x="834" y="1052" type="curve" smooth="yes"/>
      <point x="1028" y="1052"/>
      <point x="1164" y="916"/>
      <point x="1164" y="700" type="curve" smooth="yes"/>
      <point x="1164" y="484"/>
      <point x="1028" y="348"/>
    </contour>
  </outline>
</glyph>
<glyph name="acutecomb" format="2">
  <unicode hex="0301"/>
  <anchor x="-638" y="1040" name="_top"/>
  <outline>
    <contour>
      <point x="-838" y="1170" type="line"/>
      <point x="-480" y="1170" type="line"/>
      <point x="-246" y="1544" type="line"/>
      <point x="-640" y="1544" type="line"/>
    </contour>
  </outline>
</glyph>
<glyph name="tildecomb" format="2">
  <unicode hex="0303"/>
  <anchor x="-638" y="1040" name="_top"/>
  <anchor x="-638" y="1464" name="top"/>
  <outline>
    <contour>
      <point x="-1065" y="1178" type="line"/>
      <point x="-1010" y="1240"/>
      <point x="-938" y="1280"/>
      <point x="-858" y="1280" type="curve" smooth="yes"/>
      <point x="-741" y="1280"/>
      <point x="-588" y="1180"/>
      <point x="-438" y="1180" type="curve" smooth="yes"/>
      <point x="-342" y="1180"/>
      <point x="-270" y="1218"/>
      <point x="-210" y="1277" type="curve"/>
      <point x="-210" y="1536" type="line"/>
      <point x="-264" y="1474"/>
      <point x="-336" y="1434"/>
      <point x="-416" y="1434" type="curve" smooth="yes"/>
      <point x="-533" y="1434"/>
      <point x="-686" y="1534"/>
      <point x="-836" y="1534" type="curve" smooth="yes"/>
      <point x="-933" y="1534"/>
      <point x="-1006" y="1496"/>
      <point x="-1065" y="1438" type="curve"/>
    </contour>
  </outline>
</glyph>
<glyph name="macroncomb" format="2">
  <unicode hex="0304"/>
  <anchor x="-638" y="1040" name="_top"/>
  <outline>
    <contour>
      <point x="-1026" y="1230" type="line"/>
      <point x="-250" y="1230" type="line"/>
      <point x="-250" y="1462" type="line"/>
      <point x="-1026" y="1462" type="line"/>
    </contour>
  </outline>
</glyph>
<glyph name="hookabovecomb" format="2">
  <unicode hex="0309"/>
  <guideline x="-272" y="817" angle="0"/>
  <anchor x="-630" y="1040" name="_top"/>
  <outline>
    <contour>
      <point x="-754" y="1170" type="curve"/>
      <point x="-514" y="1170" type="line"/>
      <point x="-536" y="1212"/>
      <point x="-526" y="1234"/>
      <point x="-454" y="1272" type="curve" smooth="yes"/>
      <point x="-362" y="1320"/>
      <point x="-332" y="1368"/>
      <point x="-332" y="1446" type="curve" smooth="yes"/>
      <point x="-332" y="1562"/>
      <point x="-446" y="1634"/>
      <point x="-630" y="1634" type="curve" smooth="yes"/>
      <point x="-724" y="1634"/>
      <point x="-830" y="1612"/>
      <point x="-900" y="1576" type="curve"/>
      <point x="-900" y="1388" type="line"/>
      <point x="-842" y="1412"/>
      <point x="-788" y="1426"/>
      <point x="-708" y="1426" type="curve" smooth="yes"/>
      <point x="-668" y="1426"/>
      <point x="-636" y="1414"/>
      <point x="-636" y="1392" type="curve" smooth="yes"/>
      <point x="-636" y="1370"/>
      <point x="-648" y="1362"/>
      <point x="-696" y="1346" type="curve" smooth="yes"/>
      <point x="-784" y="1316"/>
      <point x="-806" y="1258"/>
    </contour>
  </outline>
</glyph>
<glyph name="caroncomb" format="2">
  <unicode hex="030C"/>
  <anchor x="-638" y="1040" name="_top"/>
  <outline>
    <contour>
      <point x="-808" y="1170" type="line"/>
      <point x="-468" y="1170" type="line"/>
      <point x="-158" y="1544" type="line"/>
      <point x="-516" y="1544" type="line"/>
      <point x="-632" y="1386" type="line"/>
      <point x="-746" y="1544" type="line"/>
      <point x="-1118" y="1544" type="line"/>
    </contour>
  </outline>
</glyph>
<glyph name="breveinvertedcomb" format="2">
  <unicode hex="0311"/>
  <anchor x="-638" y="1040" name="_top"/>
  <outline>
    <contour>
      <point x="-1076" y="1170" type="curve"/>
      <point x="-756" y="1170" type="line"/>
      <point x="-760" y="1252"/>
      <point x="-714" y="1304"/>
      <point x="-638" y="1304" type="curve" smooth="yes"/>
      <point x="-562" y="1304"/>
      <point x="-516" y="1252"/>
      <point x="-520" y="1170" type="curve"/>
      <point x="-200" y="1170" type="line"/>
      <point x="-196" y="1396"/>
      <point x="-376" y="1554"/>
      <point x="-638" y="1554" type="curve" smooth="yes"/>
      <point x="-906" y="1554"/>
      <point x="-1080" y="1400"/>
    </contour>
  </outline>
</glyph>
<glyph name="commaturnedabovecomb" format="2">
  <unicode hex="0312"/>
  <anchor x="-638" y="1040" name="_top"/>
  <outline>
    <contour>
      <point x="-636" y="1174" type="curve" smooth="yes"/>
      <point x="-512" y="1174"/>
      <point x="-424" y="1252"/>
      <point x="-424" y="1362" type="curve" smooth="yes"/>
      <point x="-424" y="1444"/>
      <point x="-494" y="1520"/>
      <point x="-584" y="1544" type="curve"/>
      <point x="-534" y="1592"/>
      <point x="-464" y="1636"/>
      <point x="-396" y="1662" type="curve"/>
      <point x="-520" y="1786" type="line"/>
      <point x="-740" y="1674"/>
      <point x="-854" y="1534"/>
      <point x="-854" y="1378" type="curve" smooth="yes"/>
      <point x="-854" y="1258"/>
      <point x="-764" y="1174"/>
    </contour>
  </outline>
</glyph>
<glyph name="commaaccentcomb" format="2">
  <unicode hex="0326"/>
  <anchor x="-638" y="0" name="_bottom"/>
  <outline>
    <contour>
      <point x="-756" y="-746" type="line"/>
      <point x="-536" y="-634"/>
      <point x="-422" y="-494"/>
      <point x="-422" y="-338" type="curve" smooth="yes"/>
      <point x="-422" y="-218"/>
      <point x="-512" y="-134"/>
      <point x="-640" y="-134" type="curve" smooth="yes"/>
      <point x="-764" y="-134"/>
      <point x="-852" y="-212"/>
      <point x="-852" y="-324" type="curve" smooth="yes"/>
      <point x="-852" y="-404"/>
      <point x="-782" y="-480"/>
      <point x="-694" y="-504" type="curve"/>
      <point x="-742" y="-552"/>
      <point x="-812" y="-596"/>
      <point x="-880" y="-622" type="curve"/>
    </contour>
  </outline>
</glyph>
<glyph name="cedillacomb" format="2">
  <unicode hex="0327"/>
  <anchor x="-658" y="0" name="_bottom"/>
  <outline>
    <contour>
      <point x="-684" y="-450" type="curve" smooth="yes"/>
      <point x="-510" y="-450"/>
      <point x="-348" y="-386"/>
      <point x="-348" y="-242" type="curve" smooth="yes"/>
      <point x="-348" y="-130"/>
      <point x="-440" y="-68"/>
      <point x="-592" y="-52" type="curve"/>
      <point x="-562" y="40" type="line"/>
      <point x="-766" y="40" type="line"/>
      <point x="-822" y="-84" type="line"/>
      <point x="-750" y="-218" type="line"/>
      <point x="-668" y="-206"/>
      <point x="-580" y="-218"/>
      <point x="-580" y="-242" type="curve" smooth="yes"/>
      <point x="-580" y="-258"/>
      <point x="-630" y="-268"/>
      <point x="-698" y="-268" type="curve" smooth="yes"/>
      <point x="-768" y="-268"/>
      <point x="-880" y="-252"/>
      <point x="-948" y="-208" type="curve"/>
      <point x="-948" y="-384" type="line"/>
      <point x="-874" y="-426"/>
      <point x="-786" y="-450"/>
    </contour>
  </outline>
</glyph>
<glyph name="brevebelowcomb" format="2">
  <unicode hex="032E"/>
  <anchor x="-638" y="0" name="_bottom"/>
  <outline>
    <contour>
      <point x="-638" y="-514" type="curve" smooth="yes"/>
      <point x="-376" y="-514"/>
      <point x="-196" y="-356"/>
      <point x="-200" y="-130" type="curve"/>
      <point x="-520" y="-130" type="line"/>
      <point x="-516" y="-212"/>
      <point x="-562" y="-264"/>
      <point x="-638" y="-264" type="curve" smooth="yes"/>
      <point x="-714" y="-264"/>
      <point x="-760" y="-212"/>
      <point x="-756" y="-130" type="curve"/>
      <point x="-1076" y="-130" type="line"/>
      <point x="-1080" y="-360"/>
      <point x="-906" y="-514"/>
    </contour>
  </outline>
</glyph>
<glyph name="macronbelowcomb" format="2">
  <unicode hex="0331"/>
  <anchor x="-638" y="0" name="_bottom"/>
  <outline>
    <contour>
      <point x="-1026" y="-422" type="line"/>
      <point x="-250" y="-422" type="line"/>
      <point x="-250" y="-190" type="line"/>
      <point x="-1026" y="-190" type="line"/>
    </contour>
  </outline>
</glyph>
<glyph name="tonos" format="2">
  <unicode hex="0384"/>
  <anchor x="-638" y="1040" name="_top"/>
  <outline>
    <contour>
      <point x="-846" y="1170" type="line"/>
      <point x="-486" y="1170" type="line"/>
      <point x="-310" y="1544" type="line"/>
      <point x="-706" y="1544" type="line"/>
    </contour>
  </outline>
</glyph>
<glyph name="Delta" format="2">
  <advance width="1454"/>
  <unicode hex="0394"/>
  <outline>
    <contour>
      <point x="60" y="0" type="line"/>
      <point x="1394" y="0" type="line"/>
      <point x="1394" y="336" type="line"/>
      <point x="964" y="1400" type="line"/>
      <point x="494" y="1400" type="line"/>
      <point x="60" y="336" type="line"/>
    </contour>
    <contour>
      <point x="494" y="368" type="line"/>
      <point x="724" y="946" type="line"/>
      <point x="954" y="368" type="line"/>
    </contour>
  </outline>
</glyph>
<glyph name="Theta" format="2">
  <advance width="1648"/>
  <unicode hex="0398"/>
  <guideline x="307" y="348" angle="77.9052"/>
  <outline>
    <contour>
      <point x="824" y="-30" type="curve" smooth="yes"/>
      <point x="1260" y="-30"/>
      <point x="1578" y="286"/>
      <point x="1578" y="700" type="curve" smooth="yes"/>
      <point x="1578" y="1108"/>
      <point x="1260" y="1430"/>
      <point x="824" y="1430" type="curve" smooth="yes"/>
      <point x="386" y="1430"/>
      <point x="70" y="1116"/>
      <point x="70" y="700" type="curve" smooth="yes"/>
      <point x="70" y="286"/>
      <point x="386" y="-30"/>
    </contour>
    <contour>
      <point x="594" y="556" type="line"/>
      <point x="1024" y="556" type="line"/>
      <point x="1024" y="836" type="line"/>
      <point x="654" y="836" type="line"/>
    </contour>
    <contour>
      <point x="824" y="340" type="curve" smooth="yes"/>
      <point x="610" y="340"/>
      <point x="484" y="476"/>
      <point x="484" y="700" type="curve" smooth="yes"/>
      <point x="484" y="924"/>
      <point x="610" y="1060"/>
      <point x="824" y="1060" type="curve" smooth="yes"/>
      <point x="1038" y="1060"/>
      <point x="1164" y="924"/>
      <point x="1164" y="700" type="curve" smooth="yes"/>
      <point x="1164" y="476"/>
      <point x="1038" y="340"/>
    </contour>
  </outline>
</glyph>
<glyph name="Sigma" format="2">
  <advance width="1198"/>
  <unicode hex="03A3"/>
  <outline>
    <contour>
      <point x="26" y="0" type="line"/>
      <point x="1048" y="0" type="line"/>
      <point x="1128" y="356" type="line"/>
      <point x="520" y="356" type="line"/>
      <point x="822" y="708" type="line"/>
      <point x="534" y="1044" type="line"/>
      <point x="1072" y="1044" type="line"/>
      <point x="1072" y="1400" type="line"/>
      <point x="44" y="1400" type="line"/>
      <point x="44" y="1074" type="line"/>
      <point x="366" y="710" type="line"/>
      <point x="26" y="328" type="line"/>
    </contour>
  </outline>
</glyph>
<glyph name="Psi" format="2">
  <advance width="1855"/>
  <unicode hex="03A8"/>
  <outline>
    <contour>
      <point x="729" y="0" type="line"/>
      <point x="1129" y="0" type="line"/>
      <point x="1129" y="254" type="line"/>
      <point x="1545" y="298"/>
      <point x="1728" y="534"/>
      <point x="1728" y="953" type="curve" smooth="yes"/>
      <point x="1728" y="1086"/>
      <point x="1713" y="1235"/>
      <point x="1671" y="1400" type="curve"/>
      <point x="1284" y="1400" type="line"/>
      <point x="1321" y="1261"/>
      <point x="1343" y="1117"/>
      <point x="1343" y="953" type="curve" smooth="yes"/>
      <point x="1343" y="766"/>
      <point x="1287" y="645"/>
      <point x="1129" y="622" type="curve"/>
      <point x="1129" y="1400" type="line"/>
      <point x="729" y="1400" type="line"/>
      <point x="729" y="622" type="line"/>
      <point x="570" y="645"/>
      <point x="513" y="767"/>
      <point x="513" y="955" type="curve" smooth="yes"/>
      <point x="513" y="1119"/>
      <point x="535" y="1260"/>
      <point x="572" y="1400" type="curve"/>
      <point x="185" y="1400" type="line"/>
      <point x="143" y="1235"/>
      <point x="127" y="1086"/>
      <point x="127" y="953" type="curve" smooth="yes"/>
      <point x="127" y="535"/>
      <point x="311" y="299"/>
      <point x="729" y="254" type="curve"/>
    </contour>
  </outline>
</glyph>
<glyph name="alpha" format="2">
  <advance width="1407"/>
  <unicode hex="03B1"/>
  <anchor x="726" y="1040" name="top"/>
  <outline>
    <contour>
      <point x="548" y="-30" type="curve" smooth="yes"/>
      <point x="694" y="-30"/>
      <point x="802" y="30"/>
      <point x="890" y="150" type="curve"/>
      <point x="940" y="-2"/>
      <point x="1112" y="-70"/>
      <point x="1324" y="-6" type="curve"/>
      <point x="1324" y="322" type="line"/>
      <point x="1176" y="290"/>
      <point x="1144" y="342"/>
      <point x="1180" y="520" type="curve" smooth="yes"/>
      <point x="1280" y="1040" type="line"/>
      <point x="914" y="1040" type="line"/>
      <point x="888" y="890" type="line"/>
      <point x="810" y="1016"/>
      <point x="684" y="1070"/>
      <point x="544" y="1070" type="curve" smooth="yes"/>
      <point x="278" y="1070"/>
      <point x="50" y="870"/>
      <point x="50" y="520" type="curve" smooth="yes"/>
      <point x="50" y="172"/>
      <point x="282" y="-30"/>
    </contour>
    <contour>
      <point x="596" y="310" type="curve" smooth="yes"/>
      <point x="516" y="310"/>
      <point x="438" y="382"/>
      <point x="438" y="522" type="curve" smooth="yes"/>
      <point x="438" y="652"/>
      <point x="504" y="730"/>
      <point x="598" y="730" type="curve" smooth="yes"/>
      <point x="688" y="730"/>
      <point x="766" y="658"/>
      <point x="782" y="538" type="curve"/>
      <point x="760" y="378"/>
      <point x="674" y="310"/>
    </contour>
  </outline>
</glyph>
<glyph name="beta" format="2">
  <advance width="1331"/>
  <unicode hex="03B2"/>
  <outline>
    <contour>
      <point x="128" y="-420" type="line"/>
      <point x="528" y="-420" type="line"/>
      <point x="528" y="74" type="line"/>
      <point x="608" y="2"/>
      <point x="716" y="-24"/>
      <point x="818" y="-24" type="curve" smooth="yes"/>
      <point x="1054" y="-24"/>
      <point x="1276" y="116"/>
      <point x="1276" y="398" type="curve" smooth="yes"/>
      <point x="1276" y="594"/>
      <point x="1178" y="728"/>
      <point x="1030" y="770" type="curve"/>
      <point x="1132" y="814"/>
      <point x="1202" y="898"/>
      <point x="1202" y="1054" type="curve" smooth="yes"/>
      <point x="1202" y="1300"/>
      <point x="1032" y="1466"/>
      <point x="694" y="1466" type="curve" smooth="yes"/>
      <point x="262" y="1466"/>
      <point x="128" y="1178"/>
      <point x="128" y="936" type="curve" smooth="yes"/>
    </contour>
    <contour>
      <point x="722" y="318" type="curve"/>
      <point x="606" y="318"/>
      <point x="528" y="374"/>
      <point x="528" y="520" type="curve" smooth="yes"/>
      <point x="528" y="958" type="line" smooth="yes"/>
      <point x="528" y="1102"/>
      <point x="604" y="1142"/>
      <point x="690" y="1142" type="curve" smooth="yes"/>
      <point x="786" y="1142"/>
      <point x="842" y="1092"/>
      <point x="842" y="1006" type="curve" smooth="yes"/>
      <point x="842" y="938"/>
      <point x="808" y="892"/>
      <point x="730" y="892" type="curve" smooth="yes"/>
      <point x="644" y="892" type="line"/>
      <point x="644" y="580" type="line"/>
      <point x="730" y="580" type="line" smooth="yes"/>
      <point x="836" y="580"/>
      <point x="888" y="526"/>
      <point x="888" y="452" type="curve" smooth="yes"/>
      <point x="888" y="366"/>
      <point x="818" y="318"/>
    </contour>
  </outline>
</glyph>
<glyph name="gamma" format="2">
  <advance width="1247"/>
  <unicode hex="03B3"/>
  <outline>
    <contour>
      <point x="398" y="-420" type="line"/>
      <point x="798" y="-420" type="line"/>
      <point x="798" y="-20" type="line"/>
      <point x="1020" y="304"/>
      <point x="1146" y="692"/>
      <point x="1202" y="1040" type="curve"/>
      <point x="786" y="1040" type="line"/>
      <point x="748" y="786"/>
      <point x="682" y="456"/>
      <point x="560" y="276" type="curve"/>
      <point x="672" y="190" type="line"/>
      <point x="436" y="1040" type="line"/>
      <point x="10" y="1040" type="line"/>
      <point x="398" y="-52" type="line"/>
    </contour>
  </outline>
</glyph>
<glyph name="epsilon" format="2">
  <advance width="1061"/>
  <unicode hex="03B5"/>
  <anchor x="556" y="1040" name="top"/>
  <outline>
    <contour>
      <point x="568" y="-30" type="curve" smooth="yes"/>
      <point x="738" y="-30"/>
      <point x="874" y="-2"/>
      <point x="986" y="40" type="curve"/>
      <point x="986" y="360" type="line"/>
      <point x="852" y="298"/>
      <point x="726" y="276"/>
      <point x="606" y="276" type="curve" smooth="yes"/>
      <point x="484" y="276"/>
      <point x="456" y="304"/>
      <point x="456" y="344" type="curve" smooth="yes"/>
      <point x="456" y="400"/>
      <point x="510" y="404"/>
      <point x="582" y="404" type="curve" smooth="yes"/>
      <point x="740" y="404" type="line"/>
      <point x="740" y="652" type="line"/>
      <point x="566" y="652" type="line" smooth="yes"/>
      <point x="486" y="652"/>
      <point x="454" y="668"/>
      <point x="454" y="702" type="curve" smooth="yes"/>
      <point x="454" y="748"/>
      <point x="514" y="772"/>
      <point x="610" y="772" type="curve" smooth="yes"/>
      <point x="716" y="772"/>
      <point x="846" y="750"/>
      <point x="952" y="684" type="curve"/>
      <point x="952" y="1014" type="line"/>
      <point x="836" y="1054"/>
      <point x="724" y="1070"/>
      <point x="590" y="1070" type="curve" smooth="yes"/>
      <point x="310" y="1070"/>
      <point x="80" y="972"/>
      <point x="80" y="772" type="curve" smooth="yes"/>
      <point x="80" y="692"/>
      <point x="118" y="602"/>
      <point x="258" y="546" type="curve"/>
      <point x="102" y="478"/>
      <point x="60" y="370"/>
      <point x="60" y="280" type="curve" smooth="yes"/>
      <point x="60" y="74"/>
      <point x="274" y="-30"/>
    </contour>
  </outline>
</glyph>
<glyph name="zeta" format="2">
  <advance width="1051"/>
  <unicode hex="03B6"/>
  <outline>
    <contour>
      <point x="954" y="-420" type="line"/>
      <point x="1020" y="-284"/>
      <point x="1050" y="-176"/>
      <point x="1050" y="-90" type="curve" smooth="yes"/>
      <point x="1050" y="80"/>
      <point x="920" y="186"/>
      <point x="692" y="274" type="curve" smooth="yes"/>
      <point x="522" y="340"/>
      <point x="458" y="402"/>
      <point x="458" y="520" type="curve" smooth="yes"/>
      <point x="458" y="688"/>
      <point x="590" y="847"/>
      <point x="1054" y="1180" type="curve"/>
      <point x="1054" y="1440" type="line"/>
      <point x="150" y="1440" type="line"/>
      <point x="70" y="1112" type="line"/>
      <point x="544" y="1112" type="line"/>
      <point x="288" y="938"/>
      <point x="70" y="718"/>
      <point x="70" y="438" type="curve" smooth="yes"/>
      <point x="70" y="184"/>
      <point x="244" y="108"/>
      <point x="438" y="10" type="curve" smooth="yes"/>
      <point x="530" y="-36"/>
      <point x="664" y="-62"/>
      <point x="664" y="-194" type="curve" smooth="yes"/>
      <point x="664" y="-246"/>
      <point x="640" y="-320"/>
      <point x="576" y="-420" type="curve"/>
    </contour>
  </outline>
</glyph>
<glyph name="iota" format="2">
  <advance width="762"/>
  <unicode hex="03B9"/>
  <anchor x="320" y="1040" name="top"/>
  <outline>
    <contour>
      <point x="512" y="-28" type="curve" smooth="yes"/>
      <point x="570" y="-28"/>
      <point x="636" y="-22"/>
      <point x="704" y="-6" type="curve"/>
      <point x="704" y="316" type="line"/>
      <point x="672" y="308"/>
      <point x="646" y="304"/>
      <point x="622" y="304" type="curve" smooth="yes"/>
      <point x="556" y="304"/>
      <point x="520" y="336"/>
      <point x="520" y="426" type="curve" smooth="yes"/>
      <point x="520" y="1100" type="line"/>
      <point x="120" y="914" type="line"/>
      <point x="120" y="384" type="line" smooth="yes"/>
      <point x="120" y="98"/>
      <point x="272" y="-28"/>
    </contour>
  </outline>
</glyph>
<glyph name="kappa" format="2">
  <advance width="1264"/>
  <unicode hex="03BA"/>
  <outline>
    <contour>
      <point x="128" y="0" type="line"/>
      <point x="528" y="0" type="line"/>
      <point x="528" y="320" type="line"/>
      <point x="600" y="382" type="line"/>
      <point x="780" y="0" type="line"/>
      <point x="1220" y="0" type="line"/>
      <point x="878" y="616" type="line"/>
      <point x="930" y="656" type="line" smooth="yes"/>
      <point x="990" y="702"/>
      <point x="1054" y="728"/>
      <point x="1144" y="730" type="curve"/>
      <point x="1144" y="1066" type="line"/>
      <point x="930" y="1094"/>
      <point x="824" y="1020"/>
      <point x="706" y="914" type="curve" smooth="yes"/>
      <point x="528" y="756" type="line"/>
      <point x="528" y="1100" type="line"/>
      <point x="128" y="914" type="line"/>
    </contour>
  </outline>
</glyph>
<glyph name="nu" format="2">
  <advance width="1255"/>
  <unicode hex="03BD"/>
  <outline>
    <contour>
      <point x="358" y="0" type="line"/>
      <point x="798" y="0" type="line"/>
      <point x="996" y="324"/>
      <point x="1142" y="694"/>
      <point x="1190" y="1040" type="curve"/>
      <point x="774" y="1040" type="line"/>
      <point x="740" y="808"/>
      <point x="674" y="526"/>
      <point x="578" y="338" type="curve"/>
      <point x="616" y="346" type="line"/>
      <point x="436" y="1040" type="line"/>
      <point x="10" y="1040" type="line"/>
    </contour>
  </outline>
</glyph>
<glyph name="xi" format="2">
  <advance width="1090"/>
  <unicode hex="03BE"/>
  <outline>
    <contour>
      <point x="972" y="-420" type="line"/>
      <point x="1025" y="-312"/>
      <point x="1058" y="-191"/>
      <point x="1058" y="-100" type="curve" smooth="yes"/>
      <point x="1058" y="68"/>
      <point x="954" y="170"/>
      <point x="674" y="284" type="curve" smooth="yes"/>
      <point x="479" y="363"/>
      <point x="438" y="393"/>
      <point x="438" y="460" type="curve" smooth="yes"/>
      <point x="438" y="514"/>
      <point x="490" y="548"/>
      <point x="586" y="548" type="curve" smooth="yes"/>
      <point x="908" y="548" type="line"/>
      <point x="908" y="888" type="line"/>
      <point x="642" y="890" type="line" smooth="yes"/>
      <point x="538" y="890"/>
      <point x="476" y="937"/>
      <point x="476" y="1014" type="curve" smooth="yes"/>
      <point x="476" y="1090"/>
      <point x="539" y="1132"/>
      <point x="652" y="1132" type="curve" smooth="yes"/>
      <point x="770" y="1132"/>
      <point x="887" y="1093"/>
      <point x="1002" y="1016" type="curve"/>
      <point x="1002" y="1392" type="line"/>
      <point x="893" y="1441"/>
      <point x="751" y="1470"/>
      <point x="620" y="1470" type="curve" smooth="yes"/>
      <point x="323" y="1470"/>
      <point x="120" y="1314"/>
      <point x="120" y="1086" type="curve" smooth="yes"/>
      <point x="120" y="949"/>
      <point x="193" y="837"/>
      <point x="317" y="784" type="curve"/>
      <point x="156" y="721"/>
      <point x="50" y="603"/>
      <point x="50" y="450" type="curve" smooth="yes"/>
      <point x="50" y="248"/>
      <point x="152" y="139"/>
      <point x="434" y="12" type="curve" smooth="yes"/>
      <point x="651" y="-85"/>
      <point x="682" y="-122"/>
      <point x="682" y="-204" type="curve" smooth="yes"/>
      <point x="682" y="-253"/>
      <point x="651" y="-329"/>
      <point x="594" y="-420" type="curve"/>
    </contour>
  </outline>
</glyph>
<glyph name="pi" format="2">
  <advance width="1414"/>
  <unicode hex="03C0"/>
  <outline>
    <contour>
      <point x="1130" y="-30" type="curve" smooth="yes"/>
      <point x="1190" y="-30"/>
      <point x="1256" y="-22"/>
      <point x="1328" y="-4" type="curve"/>
      <point x="1328" y="316" type="line"/>
      <point x="1294" y="308"/>
      <point x="1264" y="302"/>
      <point x="1238" y="302" type="curve" smooth="yes"/>
      <point x="1184" y="302"/>
      <point x="1142" y="334"/>
      <point x="1142" y="408" type="curve" smooth="yes"/>
      <point x="1142" y="712" type="line"/>
      <point x="1328" y="712" type="line"/>
      <point x="1328" y="1040" type="line"/>
      <point x="80" y="1040" type="line"/>
      <point x="0" y="712" type="line"/>
      <point x="196" y="712" type="line"/>
      <point x="176" y="0" type="line"/>
      <point x="572" y="0" type="line"/>
      <point x="592" y="712" type="line"/>
      <point x="760" y="712" type="line"/>
      <point x="760" y="378" type="line" smooth="yes"/>
      <point x="760" y="90"/>
      <point x="904" y="-30"/>
    </contour>
  </outline>
</glyph>
<glyph name="sigmafinal" format="2">
  <advance width="1117"/>
  <unicode hex="03C2"/>
  <outline>
    <contour>
      <point x="972" y="-420" type="line"/>
      <point x="1036" y="-290"/>
      <point x="1064" y="-184"/>
      <point x="1064" y="-98" type="curve" smooth="yes"/>
      <point x="1064" y="80"/>
      <point x="928" y="172"/>
      <point x="714" y="264" type="curve" smooth="yes"/>
      <point x="506" y="354"/>
      <point x="438" y="402"/>
      <point x="438" y="522" type="curve" smooth="yes"/>
      <point x="438" y="634"/>
      <point x="504" y="716"/>
      <point x="670" y="716" type="curve" smooth="yes"/>
      <point x="770" y="716"/>
      <point x="894" y="690"/>
      <point x="996" y="620" type="curve"/>
      <point x="996" y="1000" type="line"/>
      <point x="894" y="1046"/>
      <point x="742" y="1070"/>
      <point x="634" y="1070" type="curve" smooth="yes"/>
      <point x="298" y="1070"/>
      <point x="50" y="830"/>
      <point x="50" y="518" type="curve" smooth="yes"/>
      <point x="50" y="232"/>
      <point x="230" y="82"/>
      <point x="419" y="6" type="curve" smooth="yes"/>
      <point x="592" y="-64"/>
      <point x="674" y="-106"/>
      <point x="674" y="-194" type="curve" smooth="yes"/>
      <point x="674" y="-246"/>
      <point x="650" y="-320"/>
      <point x="594" y="-420" type="curve"/>
    </contour>
  </outline>
</glyph>
<glyph name="tau" format="2">
  <advance width="1028"/>
  <unicode hex="03C4"/>
  <outline>
    <contour>
      <point x="648" y="-28" type="curve" smooth="yes"/>
      <point x="722" y="-28"/>
      <point x="804" y="-14"/>
      <point x="888" y="14" type="curve"/>
      <point x="836" y="328" type="line"/>
      <point x="808" y="320"/>
      <point x="782" y="314"/>
      <point x="760" y="314" type="curve" smooth="yes"/>
      <point x="700" y="314"/>
      <point x="660" y="348"/>
      <point x="660" y="438" type="curve" smooth="yes"/>
      <point x="660" y="704" type="line"/>
      <point x="952" y="704" type="line"/>
      <point x="952" y="1040" type="line"/>
      <point x="54" y="1040" type="line"/>
      <point x="-20" y="704" type="line"/>
      <point x="260" y="704" type="line"/>
      <point x="260" y="384" type="line" smooth="yes"/>
      <point x="260" y="104"/>
      <point x="422" y="-28"/>
    </contour>
  </outline>
</glyph>
<glyph name="upsilon" format="2">
  <advance width="1313"/>
  <unicode hex="03C5"/>
  <anchor x="624" y="1040" name="top"/>
  <outline>
    <contour>
      <point x="656" y="-30" type="curve" smooth="yes"/>
      <point x="1009" y="-28"/>
      <point x="1208" y="161"/>
      <point x="1208" y="526" type="curve" smooth="yes"/>
      <point x="1208" y="701"/>
      <point x="1170" y="898"/>
      <point x="1109" y="1040" type="curve"/>
      <point x="711" y="1040" type="line"/>
      <point x="770" y="925"/>
      <point x="814" y="718"/>
      <point x="814" y="555" type="curve" smooth="yes"/>
      <point x="814" y="399"/>
      <point x="758" y="310"/>
      <point x="658" y="310" type="curve" smooth="yes"/>
      <point x="568" y="310"/>
      <point x="520" y="370"/>
      <point x="520" y="474" type="curve" smooth="yes"/>
      <point x="520" y="1100" type="line"/>
      <point x="120" y="914" type="line"/>
      <point x="120" y="468" type="line" smooth="yes"/>
      <point x="120" y="182"/>
      <point x="262" y="-30"/>
    </contour>
  </outline>
</glyph>
<glyph name="phi" format="2">
  <advance width="1644"/>
  <unicode hex="03C6"/>
  <outline>
    <contour>
      <point x="617" y="-421" type="line"/>
      <point x="1005" y="-420" type="line"/>
      <point x="1005" y="600" type="line" smooth="yes"/>
      <point x="1005" y="684"/>
      <point x="1036" y="730"/>
      <point x="1093" y="730" type="curve" smooth="yes"/>
      <point x="1161" y="730"/>
      <point x="1193" y="679"/>
      <point x="1193" y="582" type="curve" smooth="yes"/>
      <point x="1193" y="359"/>
      <point x="1057" y="260"/>
      <point x="819" y="260" type="curve" smooth="yes"/>
      <point x="572" y="260"/>
      <point x="443" y="345"/>
      <point x="443" y="605" type="curve" smooth="yes"/>
      <point x="443" y="754"/>
      <point x="486" y="917"/>
      <point x="576" y="1040" type="curve"/>
      <point x="194" y="1040" type="line"/>
      <point x="112" y="910"/>
      <point x="65" y="742"/>
      <point x="65" y="566" type="curve" smooth="yes"/>
      <point x="65" y="176"/>
      <point x="314" y="-49"/>
      <point x="809" y="-49" type="curve" smooth="yes"/>
      <point x="1286" y="-49"/>
      <point x="1579" y="180"/>
      <point x="1579" y="592" type="curve" smooth="yes"/>
      <point x="1579" y="883"/>
      <point x="1414" y="1070"/>
      <point x="1107" y="1070" type="curve" smooth="yes"/>
      <point x="794" y="1070"/>
      <point x="617" y="846"/>
      <point x="617" y="514" type="curve" smooth="yes"/>
    </contour>
  </outline>
</glyph>
<glyph name="chi" format="2">
  <advance width="1300"/>
  <unicode hex="03C7"/>
  <outline>
    <contour>
      <point x="42" y="-420" type="line"/>
      <point x="494" y="-420" type="line"/>
      <point x="730" y="154" type="line"/>
      <point x="594" y="154" type="line"/>
      <point x="830" y="-420" type="line"/>
      <point x="1290" y="-420" type="line"/>
      <point x="848" y="474" type="line"/>
      <point x="852" y="150" type="line"/>
      <point x="1270" y="1040" type="line"/>
      <point x="824" y="1040" type="line"/>
      <point x="594" y="492" type="line"/>
      <point x="734" y="492" type="line"/>
      <point x="570" y="880" type="line" smooth="yes"/>
      <point x="493" y="1062"/>
      <point x="298" y="1116"/>
      <point x="44" y="1050" type="curve"/>
      <point x="44" y="694" type="line"/>
      <point x="178" y="722"/>
      <point x="223" y="700"/>
      <point x="274" y="594" type="curve" smooth="yes"/>
      <point x="492" y="144" type="line"/>
      <point x="496" y="466" type="line"/>
    </contour>
  </outline>
</glyph>
<glyph name="psi" format="2">
  <advance width="1745"/>
  <unicode hex="03C8"/>
  <outline>
    <contour>
      <point x="666" y="-420" type="line"/>
      <point x="1066" y="-420" type="line"/>
      <point x="1066" y="-30" type="line"/>
      <point x="1433" y="-28"/>
      <point x="1640" y="161"/>
      <point x="1640" y="526" type="curve" smooth="yes"/>
      <point x="1640" y="701"/>
      <point x="1602" y="898"/>
      <point x="1541" y="1040" type="curve"/>
      <point x="1143" y="1040" type="line"/>
      <point x="1202" y="925"/>
      <point x="1246" y="718"/>
      <point x="1246" y="555" type="curve" smooth="yes"/>
      <point x="1246" y="399"/>
      <point x="1178" y="310"/>
      <point x="1058" y="310" type="curve"/>
      <point x="1058" y="1280" type="line"/>
      <point x="674" y="1280" type="line"/>
      <point x="674" y="310" type="line"/>
      <point x="570" y="310"/>
      <point x="506" y="358"/>
      <point x="506" y="550" type="curve" smooth="yes"/>
      <point x="506" y="1100" type="line"/>
      <point x="120" y="914" type="line"/>
      <point x="120" y="544" type="line" smooth="yes"/>
      <point x="120" y="166"/>
      <point x="264" y="-30"/>
      <point x="666" y="-30" type="curve"/>
    </contour>
  </outline>
</glyph>
<glyph name="omega" format="2">
  <advance width="1758"/>
  <unicode hex="03C9"/>
  <anchor x="879" y="0" name="bottom"/>
  <anchor x="879" y="1040" name="top"/>
  <outline>
    <contour>
      <point x="533" y="-30" type="curve" smooth="yes"/>
      <point x="667" y="-31"/>
      <point x="791" y="30"/>
      <point x="879" y="136" type="curve"/>
      <point x="967" y="30"/>
      <point x="1091" y="-31"/>
      <point x="1225" y="-30" type="curve" smooth="yes"/>
      <point x="1499" y="-28"/>
      <point x="1653" y="161"/>
      <point x="1653" y="526" type="curve" smooth="yes"/>
      <point x="1653" y="701"/>
      <point x="1615" y="898"/>
      <point x="1554" y="1040" type="curve"/>
      <point x="1156" y="1040" type="line"/>
      <point x="1215" y="925"/>
      <point x="1259" y="718"/>
      <point x="1259" y="555" type="curve" smooth="yes"/>
      <point x="1259" y="412"/>
      <point x="1219" y="330"/>
      <point x="1149" y="330" type="curve" smooth="yes"/>
      <point x="1081" y="330"/>
      <point x="1053" y="366"/>
      <point x="1053" y="500" type="curve" smooth="yes"/>
      <point x="1053" y="820" type="line"/>
      <point x="705" y="820" type="line"/>
      <point x="705" y="500" type="line" smooth="yes"/>
      <point x="705" y="366"/>
      <point x="677" y="330"/>
      <point x="609" y="330" type="curve" smooth="yes"/>
      <point x="539" y="330"/>
      <point x="499" y="412"/>
      <point x="499" y="555" type="curve" smooth="yes"/>
      <point x="499" y="718"/>
      <point x="543" y="925"/>
      <point x="602" y="1040" type="curve"/>
      <point x="204" y="1040" type="line"/>
      <point x="143" y="898"/>
      <point x="105" y="701"/>
      <point x="105" y="526" type="curve" smooth="yes"/>
      <point x="105" y="161"/>
      <point x="259" y="-28"/>
    </contour>
  </outline>
</glyph>
<glyph name="kaiSymbol" format="2">
  <advance width="1264"/>
  <unicode hex="03D7"/>
  <outline>
    <contour>
      <point x="546" y="-430" type="line"/>
      <point x="868" y="-478"/>
      <point x="1013" y="-401"/>
      <point x="1257" y="-64" type="curve"/>
      <point x="878" y="616" type="line"/>
      <point x="930" y="656" type="line" smooth="yes"/>
      <point x="990" y="702"/>
      <point x="1054" y="728"/>
      <point x="1144" y="730" type="curve"/>
      <point x="1144" y="1066" type="line"/>
      <point x="930" y="1094"/>
      <point x="824" y="1020"/>
      <point x="706" y="914" type="curve" smooth="yes"/>
      <point x="528" y="756" type="line"/>
      <point x="528" y="1100" type="line"/>
      <point x="128" y="914" type="line"/>
      <point x="128" y="0" type="line"/>
      <point x="528" y="0" type="line"/>
      <point x="528" y="320" type="line"/>
      <point x="600" y="382" type="line"/>
      <point x="790" y="-22" type="line"/>
      <point x="714" y="-96"/>
      <point x="678" y="-114"/>
      <point x="546" y="-110" type="curve"/>
    </contour>
  </outline>
</glyph>
<glyph name="E-cy" format="2">
  <advance width="1319"/>
  <unicode hex="0404"/>
  <outline>
    <contour>
      <point x="812" y="-30" type="curve" smooth="yes"/>
      <point x="988" y="-30"/>
      <point x="1130" y="4"/>
      <point x="1242" y="56" type="curve"/>
      <point x="1242" y="456" type="line"/>
      <point x="1116" y="372"/>
      <point x="968" y="334"/>
      <point x="832" y="334" type="curve" smooth="yes"/>
      <point x="592" y="334"/>
      <point x="454" y="472"/>
      <point x="454" y="700" type="curve" smooth="yes"/>
      <point x="454" y="924"/>
      <point x="586" y="1066"/>
      <point x="828" y="1066" type="curve" smooth="yes"/>
      <point x="982" y="1066"/>
      <point x="1112" y="1022"/>
      <point x="1198" y="934" type="curve"/>
      <point x="1198" y="1350" type="line"/>
      <point x="1098" y="1402"/>
      <point x="980" y="1430"/>
      <point x="818" y="1430" type="curve" smooth="yes"/>
      <point x="382" y="1430"/>
      <point x="70" y="1128"/>
      <point x="70" y="694" type="curve" smooth="yes"/>
      <point x="70" y="248"/>
      <point x="376" y="-30"/>
    </contour>
    <contour>
      <point x="344" y="562" type="line"/>
      <point x="1038" y="562" type="line"/>
      <point x="1038" y="864" type="line"/>
      <point x="344" y="864" type="line"/>
    </contour>
  </outline>
</glyph>
<glyph name="Lje-cy" format="2">
  <advance width="2164"/>
  <unicode hex="0409"/>
  <outline>
    <contour>
      <point x="64" y="-20" type="line"/>
      <point x="394" y="-68"/>
      <point x="666" y="62"/>
      <point x="666" y="420" type="curve" smooth="yes"/>
      <point x="666" y="1032" type="line"/>
      <point x="968" y="1032" type="line"/>
      <point x="1372" y="1400" type="line"/>
      <point x="286" y="1400" type="line"/>
      <point x="286" y="504" type="line" smooth="yes"/>
      <point x="286" y="340"/>
      <point x="168" y="304"/>
      <point x="64" y="312" type="curve"/>
    </contour>
    <contour>
      <point x="1372" y="294" type="line"/>
      <point x="1372" y="564" type="line"/>
      <point x="1542" y="564" type="line" smooth="yes"/>
      <point x="1646" y="564"/>
      <point x="1720" y="532"/>
      <point x="1720" y="428" type="curve" smooth="yes"/>
      <point x="1720" y="328"/>
      <point x="1652" y="294"/>
      <point x="1540" y="294" type="curve" smooth="yes"/>
    </contour>
    <contour>
      <point x="968" y="0" type="line"/>
      <point x="1556" y="0" type="line" smooth="yes"/>
      <point x="1916" y="0"/>
      <point x="2124" y="168"/>
      <point x="2124" y="464" type="curve" smooth="yes"/>
      <point x="2124" y="744"/>
      <point x="1886" y="908"/>
      <point x="1566" y="908" type="curve" smooth="yes"/>
      <point x="1372" y="908" type="line"/>
      <point x="1372" y="1400" type="line"/>
      <point x="968" y="1400" type="line"/>
    </contour>
  </outline>
</glyph>
<glyph name="Ge-cy" format="2">
  <advance width="1086"/>
  <unicode hex="0413"/>
  <anchor x="440" y="644" name="bar"/>
  <anchor x="560" y="0" name="descender"/>
  <anchor x="606" y="1400" name="top"/>
  <outline>
    <contour>
      <point x="156" y="0" type="line"/>
      <point x="560" y="0" type="line"/>
      <point x="560" y="1032" type="line"/>
      <point x="1056" y="1032" type="line"/>
      <point x="1056" y="1400" type="line"/>
      <point x="156" y="1400" type="line"/>
    </contour>
  </outline>
</glyph>
<glyph name="De-cy" format="2">
  <advance width="1752"/>
  <unicode hex="0414"/>
  <outline>
    <contour>
      <point x="1072" y="0" type="line"/>
      <point x="1476" y="0" type="line"/>
      <point x="1476" y="1400" type="line"/>
      <point x="326" y="1400" type="line"/>
      <point x="326" y="514" type="line" smooth="yes"/>
      <point x="326" y="352"/>
      <point x="208" y="316"/>
      <point x="104" y="324" type="curve"/>
      <point x="104" y="40" type="line"/>
      <point x="434" y="-8"/>
      <point x="706" y="142"/>
      <point x="706" y="560" type="curve" smooth="yes"/>
      <point x="706" y="1032" type="line"/>
      <point x="1072" y="1032" type="line"/>
    </contour>
    <contour>
      <point x="104" y="-440" type="line"/>
      <point x="488" y="-260" type="line"/>
      <point x="488" y="0" type="line"/>
      <point x="1320" y="0" type="line"/>
      <point x="1320" y="-440" type="line"/>
      <point x="1704" y="-260" type="line"/>
      <point x="1704" y="368" type="line"/>
      <point x="432" y="368" type="line"/>
      <point x="364" y="284" type="line"/>
      <point x="104" y="324" type="line"/>
    </contour>
  </outline>
</glyph>
<glyph name="Ze-cy" format="2">
  <advance width="1214"/>
  <unicode hex="0417"/>
  <guideline x="106" y="357" angle="77.9052"/>
  <guideline x="106" y="357" angle="90"/>
  <anchor x="546" y="0" name="bottom"/>
  <anchor x="556" y="1400" name="top"/>
  <outline>
    <contour>
      <point x="550" y="-30" type="curve" smooth="yes"/>
      <point x="914" y="-30"/>
      <point x="1154" y="158"/>
      <point x="1154" y="440" type="curve" smooth="yes"/>
      <point x="1154" y="600"/>
      <point x="1070" y="714"/>
      <point x="914" y="772" type="curve"/>
      <point x="1026" y="836"/>
      <point x="1094" y="944"/>
      <point x="1094" y="1060" type="curve" smooth="yes"/>
      <point x="1094" y="1290"/>
      <point x="892" y="1430"/>
      <point x="556" y="1430" type="curve" smooth="yes"/>
      <point x="402" y="1430"/>
      <point x="254" y="1396"/>
      <point x="134" y="1336" type="curve"/>
      <point x="134" y="952" type="line"/>
      <point x="218" y="1020"/>
      <point x="364" y="1066"/>
      <point x="496" y="1066" type="curve" smooth="yes"/>
      <point x="634" y="1066"/>
      <point x="692" y="1034"/>
      <point x="692" y="968" type="curve" smooth="yes"/>
      <point x="692" y="902"/>
      <point x="630" y="864"/>
      <point x="514" y="864" type="curve" smooth="yes"/>
      <point x="286" y="864" type="line"/>
      <point x="222" y="562" type="line"/>
      <point x="544" y="562" type="line" smooth="yes"/>
      <point x="670" y="562"/>
      <point x="732" y="528"/>
      <point x="732" y="460" type="curve" smooth="yes"/>
      <point x="732" y="384"/>
      <point x="642" y="336"/>
      <point x="500" y="336" type="curve" smooth="yes"/>
      <point x="348" y="336"/>
      <point x="194" y="376"/>
      <point x="88" y="444" type="curve"/>
      <point x="88" y="58" type="line"/>
      <point x="220" y="-2"/>
      <point x="372" y="-30"/>
    </contour>
  </outline>
</glyph>
<glyph name="El-cy" format="2">
  <advance width="1608"/>
  <unicode hex="041B"/>
  <outline>
    <contour>
      <point x="104" y="-20" type="line"/>
      <point x="434" y="-68"/>
      <point x="706" y="62"/>
      <point x="706" y="420" type="curve" smooth="yes"/>
      <point x="706" y="1032" type="line"/>
      <point x="1048" y="1032" type="line"/>
      <point x="1048" y="0" type="line"/>
      <point x="1452" y="0" type="line"/>
      <point x="1452" y="1400" type="line"/>
      <point x="326" y="1400" type="line"/>
      <point x="326" y="504" type="line" smooth="yes"/>
      <point x="326" y="340"/>
      <point x="208" y="304"/>
      <point x="104" y="312" type="curve"/>
    </contour>
  </outline>
</glyph>
<glyph name="Pe-cy" format="2">
  <advance width="1588"/>
  <unicode hex="041F"/>
  <anchor x="794" y="1400" name="top"/>
  <outline>
    <contour>
      <point x="156" y="0" type="line"/>
      <point x="560" y="0" type="line"/>
      <point x="560" y="1032" type="line"/>
      <point x="1028" y="1032" type="line"/>
      <point x="1028" y="0" type="line"/>
      <point x="1432" y="0" type="line"/>
      <point x="1432" y="1400" type="line"/>
      <point x="156" y="1400" type="line"/>
    </contour>
  </outline>
</glyph>
<glyph name="U-cy" format="2">
  <advance width="1372"/>
  <unicode hex="0423"/>
  <anchor x="710" y="1400" name="top"/>
  <outline>
    <contour>
      <point x="94" y="-30" type="line"/>
      <point x="504" y="-56"/>
      <point x="702" y="82"/>
      <point x="926" y="512" type="curve" smooth="yes"/>
      <point x="1390" y="1400" type="line"/>
      <point x="922" y="1400" type="line"/>
      <point x="638" y="786" type="line" smooth="yes"/>
      <point x="496" y="470"/>
      <point x="378" y="326"/>
      <point x="94" y="368" type="curve"/>
    </contour>
    <contour>
      <point x="558" y="374" type="line"/>
      <point x="832" y="708" type="line"/>
      <point x="502" y="1400" type="line"/>
      <point x="14" y="1400" type="line"/>
    </contour>
  </outline>
</glyph>
<glyph name="Ef-cy" format="2">
  <advance width="1860"/>
  <unicode hex="0424"/>
  <outline>
    <contour>
      <point x="730" y="-72" type="line"/>
      <point x="1130" y="-72" type="line"/>
      <point x="1130" y="98" type="line"/>
      <point x="1518" y="116"/>
      <point x="1790" y="344"/>
      <point x="1790" y="712" type="curve" smooth="yes"/>
      <point x="1790" y="1080"/>
      <point x="1518" y="1308"/>
      <point x="1130" y="1326" type="curve"/>
      <point x="1130" y="1488" type="line"/>
      <point x="730" y="1488" type="line"/>
      <point x="730" y="1326" type="line"/>
      <point x="342" y="1308"/>
      <point x="70" y="1080"/>
      <point x="70" y="712" type="curve" smooth="yes"/>
      <point x="70" y="344"/>
      <point x="342" y="116"/>
      <point x="730" y="98" type="curve"/>
    </contour>
    <contour>
      <point x="730" y="428" type="line"/>
      <point x="568" y="442"/>
      <point x="474" y="542"/>
      <point x="474" y="712" type="curve" smooth="yes"/>
      <point x="474" y="882"/>
      <point x="568" y="982"/>
      <point x="730" y="996" type="curve"/>
    </contour>
    <contour>
      <point x="1130" y="428" type="curve"/>
      <point x="1130" y="996" type="line"/>
      <point x="1292" y="982"/>
      <point x="1386" y="882"/>
      <point x="1386" y="712" type="curve" smooth="yes"/>
      <point x="1386" y="542"/>
      <point x="1292" y="442"/>
    </contour>
  </outline>
</glyph>
<glyph name="Che-cy" format="2">
  <advance width="1472"/>
  <unicode hex="0427"/>
  <anchor x="696" y="636" name="center"/>
  <anchor x="1316" y="0" name="descender"/>
  <anchor x="912" y="0" name="descender_alt"/>
  <anchor x="696" y="1400" name="top"/>
  <outline>
    <contour>
      <point x="912" y="0" type="line"/>
      <point x="1316" y="0" type="line"/>
      <point x="1316" y="1400" type="line"/>
      <point x="912" y="1400" type="line"/>
      <point x="912" y="838" type="line"/>
      <point x="846" y="822"/>
      <point x="782" y="812"/>
      <point x="696" y="812" type="curve" smooth="yes"/>
      <point x="556" y="812"/>
      <point x="480" y="878"/>
      <point x="480" y="1062" type="curve" smooth="yes"/>
      <point x="480" y="1400" type="line"/>
      <point x="76" y="1400" type="line"/>
      <point x="76" y="1008" type="line" smooth="yes"/>
      <point x="76" y="616"/>
      <point x="292" y="460"/>
      <point x="612" y="460" type="curve" smooth="yes"/>
      <point x="716" y="460"/>
      <point x="808" y="478"/>
      <point x="912" y="508" type="curve"/>
    </contour>
  </outline>
</glyph>
<glyph name="Hardsign-cy" format="2">
  <advance width="1586"/>
  <unicode hex="042A"/>
  <anchor x="592" y="1400" name="top"/>
  <outline>
    <contour>
      <point x="390" y="1032" type="line"/>
      <point x="794" y="1400" type="line"/>
      <point x="70" y="1400" type="line"/>
      <point x="-10" y="1032" type="line"/>
    </contour>
    <contour>
      <point x="390" y="0" type="line"/>
      <point x="978" y="0" type="line" smooth="yes"/>
      <point x="1338" y="0"/>
      <point x="1546" y="176"/>
      <point x="1546" y="484" type="curve" smooth="yes"/>
      <point x="1546" y="790"/>
      <point x="1308" y="968"/>
      <point x="988" y="968" type="curve" smooth="yes"/>
      <point x="794" y="968" type="line"/>
      <point x="794" y="1400" type="line"/>
      <point x="390" y="1400" type="line"/>
    </contour>
    <contour>
      <point x="794" y="334" type="line"/>
      <point x="794" y="624" type="line"/>
      <point x="964" y="624" type="line" smooth="yes"/>
      <point x="1068" y="624"/>
      <point x="1142" y="590"/>
      <point x="1142" y="478" type="curve" smooth="yes"/>
      <point x="1142" y="370"/>
      <point x="1074" y="334"/>
      <point x="962" y="334" type="curve" smooth="yes"/>
    </contour>
  </outline>
</glyph>
<glyph name="Yeru-cy" format="2">
  <advance width="2038"/>
  <unicode hex="042B"/>
  <anchor x="1006" y="0" name="bottom"/>
  <anchor x="1006" y="1400" name="top"/>
  <outline>
    <contour>
      <point x="156" y="0" type="line"/>
      <point x="734" y="0" type="line" smooth="yes"/>
      <point x="1094" y="0"/>
      <point x="1302" y="176"/>
      <point x="1302" y="484" type="curve" smooth="yes"/>
      <point x="1302" y="790"/>
      <point x="1064" y="968"/>
      <point x="744" y="968" type="curve" smooth="yes"/>
      <point x="560" y="968" type="line"/>
      <point x="560" y="1400" type="line"/>
      <point x="156" y="1400" type="line"/>
    </contour>
    <contour>
      <point x="560" y="334" type="line"/>
      <point x="560" y="624" type="line"/>
      <point x="720" y="624" type="line" smooth="yes"/>
      <point x="824" y="624"/>
      <point x="898" y="590"/>
      <point x="898" y="478" type="curve" smooth="yes"/>
      <point x="898" y="370"/>
      <point x="830" y="334"/>
      <point x="718" y="334" type="curve" smooth="yes"/>
    </contour>
    <contour>
      <point x="1478" y="0" type="line"/>
      <point x="1882" y="0" type="line"/>
      <point x="1882" y="1400" type="line"/>
      <point x="1478" y="1400" type="line"/>
    </contour>
  </outline>
</glyph>
<glyph name="Ereversed-cy" format="2">
  <advance width="1340"/>
  <unicode hex="042D"/>
  <guideline x="126" y="357" angle="78.0349"/>
  <anchor x="560" y="0" name="bottom"/>
  <anchor x="560" y="1400" name="top"/>
  <outline>
    <contour>
      <point x="510" y="-30" type="curve" smooth="yes"/>
      <point x="968" y="-30"/>
      <point x="1260" y="254"/>
      <point x="1260" y="710" type="curve" smooth="yes"/>
      <point x="1260" y="1136"/>
      <point x="974" y="1430"/>
      <point x="528" y="1430" type="curve" smooth="yes"/>
      <point x="380" y="1430"/>
      <point x="246" y="1396"/>
      <point x="136" y="1340" type="curve"/>
      <point x="136" y="952" type="line"/>
      <point x="234" y="1026"/>
      <point x="370" y="1066"/>
      <point x="534" y="1066" type="curve" smooth="yes"/>
      <point x="754" y="1066"/>
      <point x="876" y="948"/>
      <point x="876" y="710" type="curve" smooth="yes"/>
      <point x="876" y="456"/>
      <point x="744" y="336"/>
      <point x="520" y="336" type="curve" smooth="yes"/>
      <point x="374" y="336"/>
      <point x="222" y="370"/>
      <point x="88" y="444" type="curve"/>
      <point x="88" y="60" type="line"/>
      <point x="206" y="6"/>
      <point x="356" y="-30"/>
    </contour>
    <contour>
      <point x="262" y="562" type="line"/>
      <point x="988" y="562" type="line"/>
      <point x="988" y="864" type="line"/>
      <point x="326" y="864" type="line"/>
    </contour>
  </outline>
</glyph>
<glyph name="Iu-cy" format="2">
  <advance width="2332"/>
  <unicode hex="042E"/>
  <anchor x="1210" y="1400" name="top"/>
  <outline>
    <contour>
      <point x="156" y="0" type="line"/>
      <point x="560" y="0" type="line"/>
      <point x="560" y="538" type="line"/>
      <point x="988" y="538" type="line"/>
      <point x="988" y="906" type="line"/>
      <point x="560" y="906" type="line"/>
      <point x="560" y="1400" type="line"/>
      <point x="156" y="1400" type="line"/>
    </contour>
    <contour>
      <point x="1508" y="-30" type="curve" smooth="yes"/>
      <point x="1944" y="-30"/>
      <point x="2262" y="286"/>
      <point x="2262" y="700" type="curve" smooth="yes"/>
      <point x="2262" y="1108"/>
      <point x="1944" y="1430"/>
      <point x="1508" y="1430" type="curve" smooth="yes"/>
      <point x="1070" y="1430"/>
      <point x="754" y="1116"/>
      <point x="754" y="700" type="curve" smooth="yes"/>
      <point x="754" y="286"/>
      <point x="1070" y="-30"/>
    </contour>
    <contour>
      <point x="1508" y="348" type="curve" smooth="yes"/>
      <point x="1314" y="348"/>
      <point x="1178" y="484"/>
      <point x="1178" y="700" type="curve" smooth="yes"/>
      <point x="1178" y="916"/>
      <point x="1314" y="1052"/>
      <point x="1508" y="1052" type="curve" smooth="yes"/>
      <point x="1702" y="1052"/>
      <point x="1838" y="916"/>
      <point x="1838" y="700" type="curve" smooth="yes"/>
      <point x="1838" y="484"/>
      <point x="1702" y="348"/>
    </contour>
  </outline>
</glyph>
<glyph name="be-cy" format="2">
  <advance width="1268"/>
  <unicode hex="0431"/>
  <outline>
    <contour>
      <point x="654" y="-30" type="curve" smooth="yes"/>
      <point x="994" y="-30"/>
      <point x="1218" y="198"/>
      <point x="1218" y="486" type="curve" smooth="yes"/>
      <point x="1218" y="740"/>
      <point x="1014" y="942"/>
      <point x="730" y="942" type="curve" smooth="yes"/>
      <point x="614" y="942"/>
      <point x="512" y="910"/>
      <point x="428" y="854" type="curve"/>
      <point x="444" y="996"/>
      <point x="508" y="1050"/>
      <point x="674" y="1076" type="curve" smooth="yes"/>
      <point x="1104" y="1140" type="line"/>
      <point x="1104" y="1470" type="line"/>
      <point x="606" y="1386" type="line" smooth="yes"/>
      <point x="226" y="1322"/>
      <point x="60" y="1072"/>
      <point x="60" y="628" type="curve" smooth="yes"/>
      <point x="60" y="228"/>
      <point x="302" y="-30"/>
    </contour>
    <contour>
      <point x="652" y="310" type="curve" smooth="yes"/>
      <point x="554" y="310"/>
      <point x="472" y="374"/>
      <point x="472" y="480" type="curve" smooth="yes"/>
      <point x="472" y="586"/>
      <point x="552" y="650"/>
      <point x="652" y="650" type="curve" smooth="yes"/>
      <point x="750" y="650"/>
      <point x="830" y="586"/>
      <point x="830" y="480" type="curve" smooth="yes"/>
      <point x="830" y="374"/>
      <point x="748" y="310"/>
    </contour>
  </outline>
</glyph>
<glyph name="de-cy" format="2">
  <advance width="1488"/>
  <unicode hex="0434"/>
  <outline>
    <contour>
      <point x="858" y="0" type="line"/>
      <point x="1258" y="0" type="line"/>
      <point x="1258" y="1040" type="line"/>
      <point x="266" y="1040" type="line"/>
      <point x="266" y="444" type="line" smooth="yes"/>
      <point x="266" y="316"/>
      <point x="170" y="288"/>
      <point x="84" y="292" type="curve"/>
      <point x="84" y="20" type="line"/>
      <point x="382" y="-26"/>
      <point x="626" y="86"/>
      <point x="626" y="400" type="curve" smooth="yes"/>
      <point x="626" y="728" type="line"/>
      <point x="858" y="728" type="line"/>
    </contour>
    <contour>
      <point x="84" y="-384" type="line"/>
      <point x="448" y="-216" type="line"/>
      <point x="448" y="0" type="line"/>
      <point x="1100" y="0" type="line"/>
      <point x="1100" y="-384" type="line"/>
      <point x="1464" y="-216" type="line"/>
      <point x="1464" y="312" type="line"/>
      <point x="342" y="312" type="line"/>
      <point x="278" y="286" type="line"/>
      <point x="84" y="292" type="line"/>
    </contour>
  </outline>
</glyph>
<glyph name="ze-cy" format="2">
  <advance width="1042"/>
  <unicode hex="0437"/>
  <guideline x="134" y="264" angle="90"/>
  <guideline x="134" y="264" angle="78.0349"/>
  <anchor x="494" y="0" name="bottom"/>
  <anchor x="474" y="1040" name="top"/>
  <outline>
    <contour>
      <point x="468" y="-30" type="curve" smooth="yes"/>
      <point x="792" y="-30"/>
      <point x="982" y="118"/>
      <point x="982" y="326" type="curve" smooth="yes"/>
      <point x="982" y="456"/>
      <point x="912" y="534"/>
      <point x="778" y="576" type="curve"/>
      <point x="882" y="606"/>
      <point x="936" y="696"/>
      <point x="936" y="784" type="curve" smooth="yes"/>
      <point x="936" y="968"/>
      <point x="768" y="1076"/>
      <point x="468" y="1076" type="curve" smooth="yes"/>
      <point x="348" y="1076"/>
      <point x="218" y="1052"/>
      <point x="104" y="994" type="curve"/>
      <point x="104" y="684" type="line"/>
      <point x="184" y="752"/>
      <point x="304" y="784"/>
      <point x="430" y="784" type="curve" smooth="yes"/>
      <point x="528" y="784"/>
      <point x="586" y="766"/>
      <point x="586" y="722" type="curve" smooth="yes"/>
      <point x="586" y="680"/>
      <point x="552" y="662"/>
      <point x="446" y="662" type="curve" smooth="yes"/>
      <point x="296" y="662" type="line"/>
      <point x="240" y="394" type="line"/>
      <point x="458" y="394" type="line" smooth="yes"/>
      <point x="570" y="394"/>
      <point x="620" y="384"/>
      <point x="620" y="334" type="curve" smooth="yes"/>
      <point x="620" y="284"/>
      <point x="560" y="262"/>
      <point x="450" y="262" type="curve" smooth="yes"/>
      <point x="312" y="262"/>
      <point x="182" y="296"/>
      <point x="100" y="364" type="curve"/>
      <point x="100" y="42" type="line"/>
      <point x="208" y="-8"/>
      <point x="338" y="-30"/>
    </contour>
  </outline>
</glyph>
<glyph name="ii-cy" format="2">
  <advance width="1372"/>
  <unicode hex="0438"/>
  <anchor x="686" y="0" name="bottom"/>
  <anchor x="686" y="1040" name="top"/>
  <outline>
    <contour>
      <point x="128" y="0" type="line"/>
      <point x="490" y="0" type="line"/>
      <point x="864" y="496" type="line"/>
      <point x="864" y="0" type="line"/>
      <point x="1244" y="0" type="line"/>
      <point x="1244" y="1040" type="line"/>
      <point x="882" y="1040" type="line"/>
      <point x="508" y="552" type="line"/>
      <point x="508" y="1100" type="line"/>
      <point x="128" y="924" type="line"/>
    </contour>
  </outline>
</glyph>
<glyph name="ka-cy" format="2">
  <advance width="1272"/>
  <unicode hex="043A"/>
  <anchor x="1138" y="0" name="descender"/>
  <anchor x="674" y="1040" name="top"/>
  <outline>
    <contour>
      <point x="788" y="0" type="line"/>
      <point x="1258" y="0" type="line"/>
      <point x="904" y="560" type="line"/>
      <point x="1240" y="1040" type="line"/>
      <point x="820" y="1040" type="line"/>
      <point x="478" y="538" type="line"/>
    </contour>
    <contour>
      <point x="128" y="0" type="line"/>
      <point x="528" y="0" type="line"/>
      <point x="528" y="370" type="line"/>
      <point x="848" y="370" type="line"/>
      <point x="848" y="682" type="line"/>
      <point x="528" y="682" type="line"/>
      <point x="528" y="1100" type="line"/>
      <point x="128" y="914" type="line"/>
    </contour>
  </outline>
</glyph>
<glyph name="el-cy" format="2">
  <advance width="1366"/>
  <unicode hex="043B"/>
  <guideline x="28" y="156" angle="0"/>
  <guideline x="133" y="148" angle="0"/>
  <outline>
    <contour>
      <point x="84" y="-20" type="line"/>
      <point x="382" y="-66"/>
      <point x="626" y="46"/>
      <point x="626" y="360" type="curve" smooth="yes"/>
      <point x="626" y="728" type="line"/>
      <point x="838" y="728" type="line"/>
      <point x="838" y="0" type="line"/>
      <point x="1238" y="0" type="line"/>
      <point x="1238" y="1040" type="line"/>
      <point x="266" y="1040" type="line"/>
      <point x="266" y="444" type="line" smooth="yes"/>
      <point x="266" y="312"/>
      <point x="170" y="284"/>
      <point x="84" y="292" type="curve"/>
    </contour>
  </outline>
</glyph>
<glyph name="en-cy" format="2">
  <advance width="1376"/>
  <unicode hex="043D"/>
  <anchor x="1248" y="0" name="descender"/>
  <anchor x="688" y="1040" name="top"/>
  <outline>
    <contour>
      <point x="128" y="0" type="line"/>
      <point x="528" y="0" type="line"/>
      <point x="528" y="370" type="line"/>
      <point x="848" y="370" type="line"/>
      <point x="848" y="0" type="line"/>
      <point x="1248" y="0" type="line"/>
      <point x="1248" y="1100" type="line"/>
      <point x="848" y="914" type="line"/>
      <point x="848" y="682" type="line"/>
      <point x="528" y="682" type="line"/>
      <point x="528" y="1100" type="line"/>
      <point x="128" y="914" type="line"/>
    </contour>
  </outline>
</glyph>
<glyph name="yeru-cy" format="2">
  <advance width="1776"/>
  <unicode hex="044B"/>
  <anchor x="918" y="0" name="bottom"/>
  <anchor x="888" y="1040" name="top"/>
  <outline>
    <contour>
      <point x="128" y="0" type="line"/>
      <point x="668" y="0" type="line" smooth="yes"/>
      <point x="964" y="0"/>
      <point x="1148" y="144"/>
      <point x="1148" y="380" type="curve" smooth="yes"/>
      <point x="1148" y="634"/>
      <point x="966" y="758"/>
      <point x="668" y="758" type="curve" smooth="yes"/>
      <point x="492" y="758" type="line"/>
      <point x="492" y="490" type="line"/>
      <point x="634" y="490" type="line" smooth="yes"/>
      <point x="698" y="490"/>
      <point x="740" y="444"/>
      <point x="740" y="380" type="curve" smooth="yes"/>
      <point x="740" y="314"/>
      <point x="692" y="272"/>
      <point x="618" y="272" type="curve" smooth="yes"/>
      <point x="528" y="272" type="line"/>
      <point x="528" y="1100" type="line"/>
      <point x="128" y="914" type="line"/>
    </contour>
    <contour>
      <point x="1248" y="0" type="line"/>
      <point x="1648" y="0" type="line"/>
      <point x="1648" y="1100" type="line"/>
      <point x="1248" y="914" type="line"/>
    </contour>
  </outline>
</glyph>
<glyph name="ereversed-cy" format="2">
  <advance width="1076"/>
  <unicode hex="044D"/>
  <anchor x="464" y="0" name="bottom"/>
  <anchor x="464" y="1040" name="top"/>
  <outline>
    <contour>
      <point x="448" y="-30" type="curve" smooth="yes"/>
      <point x="806" y="-30"/>
      <point x="1026" y="194"/>
      <point x="1026" y="524" type="curve" smooth="yes"/>
      <point x="1026" y="854"/>
      <point x="812" y="1070"/>
      <point x="464" y="1070" type="curve" smooth="yes"/>
      <point x="330" y="1070"/>
      <point x="206" y="1040"/>
      <point x="104" y="988" type="curve"/>
      <point x="104" y="678" type="line"/>
      <point x="180" y="736"/>
      <point x="288" y="778"/>
      <point x="412" y="778" type="curve" smooth="yes"/>
      <point x="592" y="778"/>
      <point x="672" y="712"/>
      <point x="672" y="524" type="curve" smooth="yes"/>
      <point x="672" y="324"/>
      <point x="596" y="262"/>
      <point x="410" y="262" type="curve" smooth="yes"/>
      <point x="292" y="262"/>
      <point x="168" y="296"/>
      <point x="80" y="364" type="curve"/>
      <point x="80" y="42" type="line"/>
      <point x="184" y="-4"/>
      <point x="314" y="-30"/>
    </contour>
    <contour>
      <point x="240" y="396" type="line"/>
      <point x="796" y="396" type="line"/>
      <point x="796" y="664" type="line"/>
      <point x="296" y="664" type="line"/>
    </contour>
  </outline>
</glyph>
<glyph name="lje-cy" format="2">
  <advance width="1898"/>
  <unicode hex="0459"/>
  <outline>
    <contour>
      <point x="74" y="-20" type="line"/>
      <point x="372" y="-66"/>
      <point x="616" y="46"/>
      <point x="616" y="360" type="curve" smooth="yes"/>
      <point x="616" y="728" type="line"/>
      <point x="808" y="728" type="line"/>
      <point x="1208" y="1040" type="line"/>
      <point x="256" y="1040" type="line"/>
      <point x="256" y="444" type="line" smooth="yes"/>
      <point x="256" y="316"/>
      <point x="160" y="288"/>
      <point x="74" y="292" type="curve"/>
    </contour>
    <contour>
      <point x="808" y="0" type="line"/>
      <point x="1358" y="0" type="line" smooth="yes"/>
      <point x="1654" y="0"/>
      <point x="1838" y="144"/>
      <point x="1838" y="380" type="curve" smooth="yes"/>
      <point x="1838" y="634"/>
      <point x="1656" y="758"/>
      <point x="1358" y="758" type="curve" smooth="yes"/>
      <point x="1172" y="758" type="line"/>
      <point x="1172" y="490" type="line"/>
      <point x="1324" y="490" type="line" smooth="yes"/>
      <point x="1388" y="490"/>
      <point x="1430" y="444"/>
      <point x="1430" y="380" type="curve" smooth="yes"/>
      <point x="1430" y="314"/>
      <point x="1382" y="272"/>
      <point x="1308" y="272" type="curve" smooth="yes"/>
      <point x="1208" y="272" type="line"/>
      <point x="1208" y="1040" type="line"/>
      <point x="808" y="1040" type="line"/>
    </contour>
  </outline>
</glyph>
<glyph name="Yat-cy" format="2">
  <advance width="1452"/>
  <unicode hex="0462"/>
  <guideline x="-44" y="1170" angle="77.9052"/>
  <outline>
    <contour>
      <point x="256" y="0" type="line"/>
      <point x="844" y="0" type="line" smooth="yes"/>
      <point x="1204" y="0"/>
      <point x="1412" y="168"/>
      <point x="1412" y="464" type="curve" smooth="yes"/>
      <point x="1412" y="731"/>
      <point x="1174" y="888"/>
      <point x="854" y="888" type="curve" smooth="yes"/>
      <point x="378" y="888" type="line"/>
      <point x="378" y="564" type="line"/>
      <point x="830" y="564" type="line" smooth="yes"/>
      <point x="934" y="564"/>
      <point x="1008" y="532"/>
      <point x="1008" y="428" type="curve" smooth="yes"/>
      <point x="1008" y="328"/>
      <point x="940" y="294"/>
      <point x="828" y="294" type="curve" smooth="yes"/>
      <point x="660" y="294" type="line"/>
      <point x="660" y="1440" type="line"/>
      <point x="256" y="1440" type="line"/>
    </contour>
    <contour>
      <point x="-77" y="996" type="line"/>
      <point x="962" y="996" type="line"/>
      <point x="962" y="1304" type="line"/>
      <point x="-11" y="1304" type="line"/>
    </contour>
  </outline>
</glyph>
<glyph name="yat-cy" format="2">
  <advance width="1369"/>
  <unicode hex="0463"/>
  <outline>
    <contour>
      <point x="301" y="0" type="line"/>
      <point x="851" y="0" type="line" smooth="yes"/>
      <point x="1139" y="0"/>
      <point x="1321" y="134"/>
      <point x="1321" y="354" type="curve" smooth="yes"/>
      <point x="1321" y="570"/>
      <point x="1143" y="674"/>
      <point x="851" y="674" type="curve" smooth="yes"/>
      <point x="669" y="674" type="line"/>
      <point x="669" y="440" type="line"/>
      <point x="817" y="440" type="line" smooth="yes"/>
      <point x="875" y="440"/>
      <point x="913" y="400"/>
      <point x="913" y="354" type="curve" smooth="yes"/>
      <point x="913" y="304"/>
      <point x="869" y="268"/>
      <point x="801" y="268" type="curve" smooth="yes"/>
      <point x="701" y="268" type="line"/>
      <point x="701" y="1480" type="line"/>
      <point x="301" y="1294" type="line"/>
    </contour>
    <contour>
      <point x="6" y="748" type="line"/>
      <point x="963" y="748" type="line"/>
      <point x="963" y="1040" type="line"/>
      <point x="69" y="1040" type="line"/>
    </contour>
  </outline>
</glyph>
<glyph name="yusbig-cy" format="2">
  <advance width="1802"/>
  <unicode hex="046B"/>
  <anchor x="1668" y="0" name="descender"/>
  <outline>
    <contour>
      <point x="14" y="0" type="line"/>
      <point x="460" y="0" type="line"/>
      <point x="726" y="504" type="line"/>
      <point x="564" y="770" type="line"/>
      <point x="1230" y="770" type="line"/>
      <point x="1062" y="504" type="line"/>
      <point x="1320" y="0" type="line"/>
      <point x="1788" y="0" type="line"/>
      <point x="1488" y="528" type="line"/>
      <point x="1652" y="780" type="line"/>
      <point x="1652" y="1040" type="line"/>
      <point x="130" y="1040" type="line"/>
      <point x="130" y="780" type="line"/>
      <point x="300" y="508" type="line"/>
    </contour>
    <contour>
      <point x="694" y="0" type="line"/>
      <point x="1094" y="0" type="line"/>
      <point x="1094" y="370" type="line"/>
      <point x="1386" y="370" type="line"/>
      <point x="1386" y="602" type="line"/>
      <point x="400" y="602" type="line"/>
      <point x="400" y="370" type="line"/>
      <point x="694" y="370" type="line"/>
    </contour>
  </outline>
</glyph>
<glyph name="Fita-cy" format="2">
  <advance width="1648"/>
  <unicode hex="0472"/>
  <anchor x="824" y="0" name="bottom"/>
  <anchor x="1228" y="1400" name="horn"/>
  <anchor x="1084" y="0" name="ogonek"/>
  <anchor x="824" y="1400" name="top"/>
  <anchor x="90" y="1400" name="topleft"/>
  <outline>
    <contour>
      <point x="316" y="450" type="line"/>
      <point x="404" y="544"/>
      <point x="500" y="588"/>
      <point x="612" y="588" type="curve" smooth="yes"/>
      <point x="754" y="588"/>
      <point x="924" y="514"/>
      <point x="1080" y="514" type="curve" smooth="yes"/>
      <point x="1188" y="514"/>
      <point x="1280" y="552"/>
      <point x="1362" y="630" type="curve"/>
      <point x="1362" y="952" type="line"/>
      <point x="1278" y="858"/>
      <point x="1188" y="816"/>
      <point x="1076" y="816" type="curve" smooth="yes"/>
      <point x="938" y="816"/>
      <point x="766" y="890"/>
      <point x="608" y="890" type="curve" smooth="yes"/>
      <point x="500" y="890"/>
      <point x="406" y="852"/>
      <point x="316" y="772" type="curve"/>
    </contour>
    <component base="O"/>
  </outline>
</glyph>
<glyph name="Izhitsa-cy" format="2">
  <advance width="1520"/>
  <unicode hex="0474"/>
  <outline>
    <contour>
      <point x="484" y="0" type="line"/>
      <point x="954" y="0" type="line"/>
      <point x="1228" y="798" type="line" smooth="yes"/>
      <point x="1304" y="1020"/>
      <point x="1390" y="1050"/>
      <point x="1554" y="1032" type="curve"/>
      <point x="1554" y="1430" type="line"/>
      <point x="1188" y="1474"/>
      <point x="1000" y="1366"/>
      <point x="870" y="962" type="curve" smooth="yes"/>
      <point x="724" y="504" type="line"/>
      <point x="438" y="1400" type="line"/>
      <point x="-18" y="1400" type="line"/>
    </contour>
  </outline>
</glyph>
<glyph name="gheupturn-cy" format="2">
  <advance width="902"/>
  <unicode hex="0491"/>
  <anchor x="348" y="462" name="bar"/>
  <anchor x="528" y="0" name="descender"/>
  <anchor x="494" y="1040" name="top"/>
  <outline>
    <contour>
      <point x="498" y="728" type="line"/>
      <point x="862" y="728" type="line"/>
      <point x="862" y="1424" type="line"/>
      <point x="498" y="1256" type="line"/>
    </contour>
    <component base="ge-cy"/>
  </outline>
</glyph>
<glyph name="enghe-cy" format="2">
  <advance width="1622"/>
  <unicode hex="04A5"/>
  <outline>
    <contour>
      <point x="128" y="0" type="line"/>
      <point x="528" y="0" type="line"/>
      <point x="528" y="370" type="line"/>
      <point x="848" y="370" type="line"/>
      <point x="848" y="0" type="line"/>
      <point x="1248" y="0" type="line"/>
      <point x="1248" y="728" type="line"/>
      <point x="1582" y="728" type="line"/>
      <point x="1582" y="1040" type="line"/>
      <point x="848" y="1040" type="line"/>
      <point x="848" y="682" type="line"/>
      <point x="528" y="682" type="line"/>
      <point x="528" y="1100" type="line"/>
      <point x="128" y="914" type="line"/>
    </contour>
  </outline>
</glyph>
<glyph name="chekhakassian-cy" format="2">
  <advance width="1254"/>
  <unicode hex="04CC"/>
  <guideline x="454" y="184" angle="25.0341"/>
  <guideline x="363" y="-150" angle="25.0341"/>
  <guideline x="363" y="104" angle="25.0341"/>
  <anchor x="726" y="0" name="_descender"/>
  <anchor x="592" y="486" name="center"/>
  <anchor x="1126" y="0" name="descender"/>
  <anchor x="726" y="0" name="descender_alt"/>
  <anchor x="592" y="1040" name="top"/>
  <outline>
    <contour>
      <point x="442" y="-384" type="line"/>
      <point x="806" y="-216" type="line"/>
      <point x="806" y="0" type="line"/>
      <point x="886" y="0" type="line"/>
      <point x="886" y="232" type="line"/>
      <point x="442" y="232" type="line"/>
    </contour>
    <component base="che-cy"/>
  </outline>
</glyph>
<glyph name="Obarred-cy" format="2">
  <advance width="1668"/>
  <unicode hex="04E8"/>
  <anchor x="834" y="0" name="bottom"/>
  <anchor x="1238" y="1400" name="horn"/>
  <anchor x="1094" y="0" name="ogonek"/>
  <anchor x="834" y="1400" name="top"/>
  <anchor x="100" y="1400" name="topleft"/>
  <outline>
    <contour>
      <point x="354" y="562" type="line"/>
      <point x="1316" y="562" type="line"/>
      <point x="1316" y="864" type="line"/>
      <point x="354" y="864" type="line"/>
    </contour>
    <component base="O"/>
  </outline>
</glyph>
<glyph name="emdash" format="2">
  <advance width="1680"/>
  <unicode hex="2014"/>
  <outline>
    <contour>
      <point x="50" y="412" type="line"/>
      <point x="1630" y="412" type="line"/>
      <point x="1630" y="728" type="line"/>
      <point x="50" y="728" type="line"/>
    </contour>
  </outline>
</glyph>
<glyph name="quoteright" format="2">
  <advance width="600"/>
  <unicode hex="2019"/>
  <outline>
    <contour>
      <point x="174" y="588" type="line"/>
      <point x="422" y="740"/>
      <point x="550" y="930"/>
      <point x="550" y="1144" type="curve" smooth="yes"/>
      <point x="550" y="1306"/>
      <point x="448" y="1420"/>
      <point x="304" y="1420" type="curve" smooth="yes"/>
      <point x="164" y="1420"/>
      <point x="66" y="1326"/>
      <point x="66" y="1190" type="curve" smooth="yes"/>
      <point x="66" y="1082"/>
      <point x="166" y="982"/>
      <point x="284" y="970" type="curve"/>
      <point x="230" y="884"/>
      <point x="130" y="798"/>
      <point x="34" y="756" type="curve"/>
    </contour>
  </outline>
</glyph>
<glyph name="daggerdbl" format="2">
  <advance width="1346"/>
  <unicode hex="2021"/>
  <outline>
    <contour>
      <point x="476" y="-318" type="line"/>
      <point x="870" y="-318" type="line"/>
      <point x="870" y="44" type="line"/>
      <point x="1282" y="44" type="line"/>
      <point x="1282" y="368" type="line"/>
      <point x="870" y="368" type="line"/>
      <point x="870" y="714" type="line"/>
      <point x="1282" y="714" type="line"/>
      <point x="1282" y="1038" type="line"/>
      <point x="870" y="1038" type="line"/>
      <point x="870" y="1400" type="line"/>
      <point x="476" y="1400" type="line"/>
      <point x="476" y="1038" type="line"/>
      <point x="64" y="1038" type="line"/>
      <point x="64" y="714" type="line"/>
      <point x="476" y="714" type="line"/>
      <point x="476" y="368" type="line"/>
      <point x="64" y="368" type="line"/>
      <point x="64" y="44" type="line"/>
      <point x="476" y="44" type="line"/>
    </contour>
  </outline>
</glyph>
<glyph name="bullet" format="2">
  <advance width="1040"/>
  <unicode hex="2022"/>
  <outline>
    <contour>
      <point x="520" y="260" type="curve" smooth="yes"/>
      <point x="772" y="260"/>
      <point x="956" y="442"/>
      <point x="956" y="688" type="curve" smooth="yes"/>
      <point x="956" y="934"/>
      <point x="772" y="1116"/>
      <point x="520" y="1116" type="curve" smooth="yes"/>
      <point x="268" y="1116"/>
      <point x="84" y="934"/>
      <point x="84" y="688" type="curve" smooth="yes"/>
      <point x="84" y="442"/>
      <point x="268" y="260"/>
    </contour>
  </outline>
</glyph>
<glyph name="perthousand" format="2">
  <advance width="2994"/>
  <unicode hex="2030"/>
  <outline>
    <contour>
      <point x="770" y="-40" type="line"/>
      <point x="1534" y="1326" type="line"/>
      <point x="1334" y="1440" type="line"/>
      <point x="570" y="78" type="line"/>
    </contour>
    <contour>
      <point x="446" y="606" type="curve" smooth="yes"/>
      <point x="680" y="606"/>
      <point x="860" y="786"/>
      <point x="860" y="1014" type="curve" smooth="yes"/>
      <point x="860" y="1242"/>
      <point x="680" y="1420"/>
      <point x="446" y="1420" type="curve" smooth="yes"/>
      <point x="212" y="1420"/>
      <point x="30" y="1242"/>
      <point x="30" y="1014" type="curve" smooth="yes"/>
      <point x="30" y="784"/>
      <point x="212" y="606"/>
    </contour>
    <contour>
      <point x="446" y="852" type="curve" smooth="yes"/>
      <point x="354" y="852"/>
      <point x="288" y="918"/>
      <point x="288" y="1014" type="curve" smooth="yes"/>
      <point x="288" y="1108"/>
      <point x="352" y="1174"/>
      <point x="446" y="1174" type="curve" smooth="yes"/>
      <point x="538" y="1174"/>
      <point x="604" y="1106"/>
      <point x="604" y="1014" type="curve" smooth="yes"/>
      <point x="604" y="922"/>
      <point x="536" y="852"/>
    </contour>
    <contour>
      <point x="1660" y="-20" type="curve" smooth="yes"/>
      <point x="1894" y="-20"/>
      <point x="2074" y="160"/>
      <point x="2074" y="388" type="curve" smooth="yes"/>
      <point x="2074" y="616"/>
      <point x="1894" y="794"/>
      <point x="1660" y="794" type="curve" smooth="yes"/>
      <point x="1426" y="794"/>
      <point x="1244" y="616"/>
      <point x="1244" y="388" type="curve" smooth="yes"/>
      <point x="1244" y="160"/>
      <point x="1426" y="-20"/>
    </contour>
    <contour>
      <point x="1660" y="226" type="curve" smooth="yes"/>
      <point x="1566" y="226"/>
      <point x="1502" y="294"/>
      <point x="1502" y="388" type="curve" smooth="yes"/>
      <point x="1502" y="484"/>
      <point x="1566" y="548"/>
      <point x="1660" y="548" type="curve" smooth="yes"/>
      <point x="1752" y="548"/>
      <point x="1818" y="480"/>
      <point x="1818" y="388" type="curve" smooth="yes"/>
      <point x="1818" y="296"/>
      <point x="1750" y="226"/>
    </contour>
    <contour>
      <point x="2550" y="-20" type="curve" smooth="yes"/>
      <point x="2784" y="-20"/>
      <point x="2964" y="160"/>
      <point x="2964" y="388" type="curve" smooth="yes"/>
      <point x="2964" y="616"/>
      <point x="2784" y="794"/>
      <point x="2550" y="794" type="curve" smooth="yes"/>
      <point x="2316" y="794"/>
      <point x="2134" y="616"/>
      <point x="2134" y="388" type="curve" smooth="yes"/>
      <point x="2134" y="160"/>
      <point x="2316" y="-20"/>
    </contour>
    <contour>
      <point x="2550" y="226" type="curve" smooth="yes"/>
      <point x="2456" y="226"/>
      <point x="2392" y="294"/>
      <point x="2392" y="388" type="curve" smooth="yes"/>
      <point x="2392" y="484"/>
      <point x="2456" y="548"/>
      <point x="2550" y="548" type="curve" smooth="yes"/>
      <point x="2642" y="548"/>
      <point x="2708" y="480"/>
      <point x="2708" y="388" type="curve" smooth="yes"/>
      <point x="2708" y="296"/>
      <point x="2640" y="226"/>
    </contour>
  </outline>
</glyph>
<glyph name="trademark" format="2">
  <advance width="1966"/>
  <unicode hex="2122"/>
  <anchor x="390" y="952" name="bar"/>
  <anchor x="388" y="560" name="bottom"/>
  <anchor x="388" y="1400" name="top"/>
  <outline>
    <contour>
      <point x="276" y="560" type="line"/>
      <point x="500" y="560" type="line"/>
      <point x="500" y="1198" type="line"/>
      <point x="734" y="1198" type="line"/>
      <point x="734" y="1400" type="line"/>
      <point x="66" y="1400" type="line"/>
      <point x="22" y="1198" type="line"/>
      <point x="276" y="1198" type="line"/>
    </contour>
    <contour>
      <point x="860" y="560" type="line"/>
      <point x="1076" y="560" type="line"/>
      <point x="1072" y="1020" type="line"/>
      <point x="1278" y="710" type="line"/>
      <point x="1424" y="710" type="line"/>
      <point x="1630" y="1020" type="line"/>
      <point x="1626" y="560" type="line"/>
      <point x="1842" y="560" type="line"/>
      <point x="1842" y="1400" type="line"/>
      <point x="1628" y="1400" type="line"/>
      <point x="1354" y="964" type="line"/>
      <point x="1074" y="1400" type="line"/>
      <point x="860" y="1400" type="line"/>
    </contour>
  </outline>
</glyph>
<glyph name="rightArrow" format="2">
  <advance width="1800"/>
  <unicode hex="2192"/>
  <outline>
    <contour>
      <point x="1080" y="50" type="line"/>
      <point x="1762" y="732" type="line"/>
      <point x="1080" y="1414" type="line"/>
      <point x="882" y="1216" type="line"/>
      <point x="1218" y="880" type="line"/>
      <point x="80" y="882" type="line"/>
      <point x="80" y="586" type="line"/>
      <point x="1218" y="584" type="line"/>
      <point x="882" y="248" type="line"/>
    </contour>
  </outline>
</glyph>
<glyph name=".notdef" format="2">
  <advance width="1360"/>
  <outline>
    <contour>
      <point x="128" y="0" type="line"/>
      <point x="1232" y="0" type="line"/>
      <point x="1232" y="1400" type="line"/>
      <point x="128" y="1400" type="line"/>
    </contour>
    <contour>
      <point x="452" y="266" type="line"/>
      <point x="452" y="1134" type="line"/>
      <point x="908" y="1134" type="line"/>
      <point x="908" y="266" type="line"/>
    </contour>
  </outline>
</glyph>
<glyph name="_part.cedi" format="2">
  <advance width="1296"/>
  <anchor x="706" y="0" name="bottom"/>
  <anchor x="746" y="1400" name="top"/>
  <outline>
    <contour>
      <point x="742" y="-30" type="curve" smooth="yes"/>
      <point x="894" y="-30"/>
      <point x="1020" y="0"/>
      <point x="1124" y="54" type="curve"/>
      <point x="1124" y="450" type="line"/>
      <point x="1014" y="364"/>
      <point x="888" y="328"/>
      <point x="772" y="328" type="curve" smooth="yes"/>
      <point x="566" y="328"/>
      <point x="456" y="474"/>
      <point x="456" y="700" type="curve" smooth="yes"/>
      <point x="456" y="928"/>
      <point x="566" y="1072"/>
      <point x="768" y="1072" type="curve" smooth="yes"/>
      <point x="906" y="1072"/>
      <point x="1016" y="1026"/>
      <point x="1086" y="948" type="curve"/>
      <point x="1086" y="1354" type="line"/>
      <point x="996" y="1402"/>
      <point x="888" y="1430"/>
      <point x="746" y="1430" type="curve" smooth="yes"/>
      <point x="358" y="1430"/>
      <point x="72" y="1128"/>
      <point x="72" y="692" type="curve" smooth="yes"/>
      <point x="72" y="248"/>
      <point x="350" y="-30"/>
    </contour>
  </outline>
</glyph>
<glyph name="_part.cy-desc-uc" format="2">
  <guideline x="-77" y="-198" angle="25.0341"/>
  <anchor x="-160" y="0" name="_descender"/>
  <outline>
    <contour>
      <point x="-316" y="-440" type="line"/>
      <point x="68" y="-260" type="line"/>
      <point x="68" y="368" type="line"/>
      <point x="-416" y="368" type="line"/>
      <point x="-416" y="0" type="line"/>
      <point x="-316" y="0" type="line"/>
    </contour>
  </outline>
</glyph>
<glyph name="_part.heng" format="2">
  <advance width="1348"/>
  <anchor x="406" y="1224" name="bar"/>
  <outline>
    <contour>
      <point x="850" y="-334" type="line"/>
      <point x="1116" y="-170"/>
      <point x="1288" y="148"/>
      <point x="1288" y="510" type="curve" smooth="yes"/>
      <point x="1288" y="852"/>
      <point x="1138" y="1070"/>
      <point x="842" y="1070" type="curve" smooth="yes"/>
      <point x="730" y="1070"/>
      <point x="594" y="1012"/>
      <point x="528" y="924" type="curve"/>
      <point x="528" y="1480" type="line"/>
      <point x="128" y="1294" type="line"/>
      <point x="128" y="0" type="line"/>
      <point x="528" y="0" type="line"/>
      <point x="528" y="516" type="line" smooth="yes"/>
      <point x="528" y="636"/>
      <point x="588" y="710"/>
      <point x="686" y="710" type="curve" smooth="yes"/>
      <point x="800" y="710"/>
      <point x="860" y="624"/>
      <point x="860" y="458" type="curve" smooth="yes"/>
      <point x="860" y="258"/>
      <point x="784" y="80"/>
      <point x="650" y="-32" type="curve"/>
    </contour>
  </outline>
</glyph>
<glyph name="_part.hryvniaBase" format="2">
  <advance width="1228"/>
  <anchor x="580" y="1400" name="top"/>
  <outline>
    <contour>
      <point x="626" y="-30" type="curve" smooth="yes"/>
      <point x="782" y="-30"/>
      <point x="934" y="6"/>
      <point x="1062" y="74" type="curve"/>
      <point x="1062" y="470" type="line"/>
      <point x="968" y="372"/>
      <point x="778" y="306"/>
      <point x="616" y="306" type="curve" smooth="yes"/>
      <point x="522" y="306"/>
      <point x="468" y="330"/>
      <point x="468" y="392" type="curve" smooth="yes"/>
      <point x="468" y="450"/>
      <point x="510" y="482"/>
      <point x="610" y="522" type="curve" smooth="yes"/>
      <point x="718" y="564" type="line" smooth="yes"/>
      <point x="962" y="660"/>
      <point x="1072" y="810"/>
      <point x="1072" y="996" type="curve" smooth="yes"/>
      <point x="1072" y="1234"/>
      <point x="868" y="1430"/>
      <point x="540" y="1430" type="curve" smooth="yes"/>
      <point x="394" y="1430"/>
      <point x="254" y="1398"/>
      <point x="142" y="1342" type="curve"/>
      <point x="142" y="952" type="line"/>
      <point x="228" y="1034"/>
      <point x="362" y="1094"/>
      <point x="512" y="1094" type="curve" smooth="yes"/>
      <point x="624" y="1094"/>
      <point x="682" y="1056"/>
      <point x="682" y="998" type="curve" smooth="yes"/>
      <point x="682" y="946"/>
      <point x="640" y="918"/>
      <point x="538" y="878" type="curve" smooth="yes"/>
      <point x="438" y="838" type="line" smooth="yes"/>
      <point x="192" y="740"/>
      <point x="72" y="622"/>
      <point x="72" y="432" type="curve" smooth="yes"/>
      <point x="72" y="156"/>
      <point x="276" y="-30"/>
    </contour>
  </outline>
</glyph>
<glyph name="_part.tse-cy" format="2">
  <advance width="1336"/>
  <anchor x="668" y="0" name="bottom"/>
  <anchor x="1208" y="0" name="descender"/>
  <outline>
    <contour>
      <point x="128" y="0" type="line"/>
      <point x="1208" y="0" type="line"/>
      <point x="1208" y="1100" type="line"/>
      <point x="808" y="914" type="line"/>
      <point x="808" y="312" type="line"/>
      <point x="528" y="312" type="line"/>
      <point x="528" y="1100" type="line"/>
      <point x="128" y="914" type="line"/>
    </contour>
  </outline>
</glyph>
<glyph name="acutecomb.case" format="2">
  <anchor x="-832" y="1400" name="_top"/>
  <outline>
    <contour>
      <point x="-1042" y="1508" type="line"/>
      <point x="-666" y="1508" type="line"/>
      <point x="-426" y="1862" type="line"/>
      <point x="-840" y="1862" type="line"/>
    </contour>
  </outline>
</glyph>
<glyph name="ae.ss01" format="2">
  <advance width="1946"/>
  <anchor x="964" y="1040" name="top"/>
  <outline>
    <contour>
      <point x="554" y="-30" type="curve" smooth="yes"/>
      <point x="712" y="-30"/>
      <point x="844" y="36"/>
      <point x="906" y="142" type="curve"/>
      <point x="838" y="242" type="line"/>
      <point x="838" y="0" type="line"/>
      <point x="1068" y="0" type="line"/>
      <point x="1068" y="242" type="line"/>
      <point x="988" y="140" type="line"/>
      <point x="1082" y="26"/>
      <point x="1204" y="-30"/>
      <point x="1386" y="-30" type="curve" smooth="yes"/>
      <point x="1538" y="-30"/>
      <point x="1736" y="28"/>
      <point x="1822" y="98" type="curve"/>
      <point x="1708" y="362" type="line"/>
      <point x="1594" y="298"/>
      <point x="1490" y="270"/>
      <point x="1368" y="270" type="curve" smooth="yes"/>
      <point x="1242" y="270"/>
      <point x="1148" y="326"/>
      <point x="1140" y="408" type="curve"/>
      <point x="1882" y="408" type="line"/>
      <point x="1956" y="782"/>
      <point x="1736" y="1070"/>
      <point x="1376" y="1070" type="curve" smooth="yes"/>
      <point x="1226" y="1070"/>
      <point x="1086" y="1010"/>
      <point x="968" y="900" type="curve"/>
      <point x="1068" y="798" type="line"/>
      <point x="1068" y="1100" type="line"/>
      <point x="778" y="964" type="line"/>
      <point x="778" y="830" type="line"/>
      <point x="906" y="898" type="line"/>
      <point x="844" y="1004"/>
      <point x="712" y="1070"/>
      <point x="554" y="1070" type="curve" smooth="yes"/>
      <point x="268" y="1070"/>
      <point x="50" y="860"/>
      <point x="50" y="520" type="curve" smooth="yes"/>
      <point x="50" y="180"/>
      <point x="268" y="-30"/>
    </contour>
    <contour>
      <point x="628" y="310" type="curve" smooth="yes"/>
      <point x="522" y="310"/>
      <point x="436" y="390"/>
      <point x="436" y="520" type="curve" smooth="yes"/>
      <point x="436" y="650"/>
      <point x="522" y="730"/>
      <point x="628" y="730" type="curve" smooth="yes"/>
      <point x="734" y="730"/>
      <point x="820" y="650"/>
      <point x="820" y="520" type="curve" smooth="yes"/>
      <point x="820" y="390"/>
      <point x="734" y="310"/>
    </contour>
    <contour>
      <point x="1166" y="668" type="line"/>
      <point x="1170" y="740"/>
      <point x="1246" y="790"/>
      <point x="1352" y="790" type="curve" smooth="yes"/>
      <point x="1448" y="790"/>
      <point x="1518" y="740"/>
      <point x="1518" y="668" type="curve"/>
    </contour>
  </outline>
</glyph>
<glyph name="breveinvertedcomb.case" format="2">
  <anchor x="-832" y="1400" name="_top"/>
  <outline>
    <contour>
      <point x="-1284" y="1508" type="curve"/>
      <point x="-948" y="1508" type="line"/>
      <point x="-952" y="1574"/>
      <point x="-906" y="1614"/>
      <point x="-832" y="1614" type="curve" smooth="yes"/>
      <point x="-760" y="1614"/>
      <point x="-712" y="1574"/>
      <point x="-716" y="1508" type="curve"/>
      <point x="-382" y="1508" type="line"/>
      <point x="-378" y="1724"/>
      <point x="-562" y="1872"/>
      <point x="-832" y="1872" type="curve" smooth="yes"/>
      <point x="-1106" y="1872"/>
      <point x="-1288" y="1728"/>
    </contour>
  </outline>
</glyph>
<glyph name="breveinvertedcomb.narrow" format="2">
  <anchor x="-636" y="1040" name="_top"/>
  <outline>
    <contour>
      <point x="-1032" y="1170" type="curve"/>
      <point x="-714" y="1170" type="line"/>
      <point x="-718" y="1252"/>
      <point x="-686" y="1304"/>
      <point x="-636" y="1304" type="curve" smooth="yes"/>
      <point x="-586" y="1304"/>
      <point x="-554" y="1252"/>
      <point x="-558" y="1170" type="curve"/>
      <point x="-240" y="1170" type="line"/>
      <point x="-238" y="1396"/>
      <point x="-398" y="1554"/>
      <point x="-636" y="1554" type="curve" smooth="yes"/>
      <point x="-878" y="1554"/>
      <point x="-1034" y="1400"/>
    </contour>
  </outline>
</glyph>
<glyph name="caroncomb.case" format="2">
  <anchor x="-834" y="1400" name="_top"/>
  <outline>
    <contour>
      <point x="-1012" y="1508" type="line"/>
      <point x="-656" y="1508" type="line"/>
      <point x="-336" y="1862" type="line"/>
      <point x="-712" y="1862" type="line"/>
      <point x="-826" y="1732" type="line"/>
      <point x="-940" y="1862" type="line"/>
      <point x="-1330" y="1862" type="line"/>
    </contour>
  </outline>
</glyph>
<glyph name="commaturnedabovecomb.case" format="2">
  <anchor x="-832" y="1400" name="_top"/>
  <outline>
    <contour>
      <point x="-830" y="1500" type="curve" smooth="yes"/>
      <point x="-702" y="1500"/>
      <point x="-610" y="1580"/>
      <point x="-610" y="1692" type="curve" smooth="yes"/>
      <point x="-610" y="1770"/>
      <point x="-682" y="1850"/>
      <point x="-776" y="1876" type="curve"/>
      <point x="-712" y="1930"/>
      <point x="-642" y="1962"/>
      <point x="-582" y="1982" type="curve"/>
      <point x="-712" y="2108" type="line"/>
      <point x="-940" y="1998"/>
      <point x="-1058" y="1860"/>
      <point x="-1058" y="1706" type="curve" smooth="yes"/>
      <point x="-1058" y="1586"/>
      <point x="-964" y="1500"/>
    </contour>
  </outline>
</glyph>
<glyph name="dblgravecomb.narrow" format="2">
  <anchor x="-638" y="1040" name="_top"/>
  <outline>
    <contour>
      <point x="-678" y="1170" type="line"/>
      <point x="-832" y="1544" type="line"/>
      <point x="-1222" y="1544" type="line"/>
      <point x="-1032" y="1170" type="line"/>
    </contour>
    <contour>
      <point x="-202" y="1170" type="line"/>
      <point x="-356" y="1544" type="line"/>
      <point x="-748" y="1544" type="line"/>
      <point x="-558" y="1170" type="line"/>
    </contour>
  </outline>
</glyph>
<glyph name="dieresiscomb.case" format="2">
  <anchor x="-832" y="1400" name="_top"/>
  <anchor x="-832" y="1834" name="top"/>
  <outline>
    <contour>
      <point x="-1116" y="1510" type="curve" smooth="yes"/>
      <point x="-1006" y="1510"/>
      <point x="-898" y="1588"/>
      <point x="-898" y="1718" type="curve" smooth="yes"/>
      <point x="-898" y="1846"/>
      <point x="-1004" y="1926"/>
      <point x="-1116" y="1926" type="curve" smooth="yes"/>
      <point x="-1230" y="1926"/>
      <point x="-1336" y="1846"/>
      <point x="-1336" y="1718" type="curve" smooth="yes"/>
      <point x="-1336" y="1588"/>
      <point x="-1228" y="1510"/>
    </contour>
    <contour>
      <point x="-548" y="1510" type="curve" smooth="yes"/>
      <point x="-438" y="1510"/>
      <point x="-330" y="1588"/>
      <point x="-330" y="1718" type="curve" smooth="yes"/>
      <point x="-330" y="1846"/>
      <point x="-436" y="1926"/>
      <point x="-548" y="1926" type="curve" smooth="yes"/>
      <point x="-662" y="1926"/>
      <point x="-768" y="1846"/>
      <point x="-768" y="1718" type="curve" smooth="yes"/>
      <point x="-768" y="1588"/>
      <point x="-660" y="1510"/>
    </contour>
  </outline>
</glyph>
<glyph name="dotaccentcomb.case" format="2">
  <anchor x="-834" y="1400" name="_top"/>
  <anchor x="-834" y="1834" name="top"/>
  <outline>
    <contour>
      <point x="-834" y="1514" type="curve" smooth="yes"/>
      <point x="-704" y="1514"/>
      <point x="-594" y="1596"/>
      <point x="-594" y="1730" type="curve" smooth="yes"/>
      <point x="-594" y="1866"/>
      <point x="-704" y="1948"/>
      <point x="-834" y="1948" type="curve" smooth="yes"/>
      <point x="-964" y="1948"/>
      <point x="-1074" y="1866"/>
      <point x="-1074" y="1730" type="curve" smooth="yes"/>
      <point x="-1074" y="1594"/>
      <point x="-962" y="1514"/>
    </contour>
  </outline>
</glyph>
<glyph name="four.dnom" format="2">
  <advance width="848"/>
  <outline>
    <contour>
      <point x="468" y="0" type="line"/>
      <point x="682" y="0" type="line"/>
      <point x="682" y="160" type="line"/>
      <point x="800" y="160" type="line"/>
      <point x="800" y="366" type="line"/>
      <point x="682" y="366" type="line"/>
      <point x="682" y="528" type="line"/>
      <point x="468" y="528" type="line"/>
      <point x="468" y="366" type="line"/>
      <point x="300" y="366" type="line"/>
      <point x="564" y="910" type="line"/>
      <point x="310" y="910" type="line"/>
      <point x="34" y="344" type="line"/>
      <point x="34" y="160" type="line"/>
      <point x="468" y="160" type="line"/>
    </contour>
  </outline>
</glyph>
<glyph name="g.ss01" format="2">
  <advance width="1339"/>
  <anchor x="623" y="1040" name="top"/>
  <outline>
    <contour>
      <point x="593" y="-450" type="curve" smooth="yes"/>
      <point x="991" y="-450"/>
      <point x="1211" y="-232"/>
      <point x="1211" y="164" type="curve" smooth="yes"/>
      <point x="1211" y="1102" type="line"/>
      <point x="793" y="906" type="line"/>
      <point x="793" y="798" type="line"/>
      <point x="903" y="852" type="line"/>
      <point x="861" y="990"/>
      <point x="723" y="1070"/>
      <point x="535" y="1070" type="curve" smooth="yes"/>
      <point x="241" y="1070"/>
      <point x="45" y="862"/>
      <point x="45" y="550" type="curve" smooth="yes"/>
      <point x="45" y="238"/>
      <point x="241" y="30"/>
      <point x="535" y="30" type="curve" smooth="yes"/>
      <point x="723" y="30"/>
      <point x="861" y="110"/>
      <point x="903" y="248" type="curve"/>
      <point x="853" y="334" type="line"/>
      <point x="853" y="104" type="line" smooth="yes"/>
      <point x="853" y="-40"/>
      <point x="753" y="-114"/>
      <point x="561" y="-114" type="curve" smooth="yes"/>
      <point x="453" y="-114"/>
      <point x="359" y="-94"/>
      <point x="271" y="-50" type="curve"/>
      <point x="271" y="-398" type="line"/>
      <point x="363" y="-434"/>
      <point x="471" y="-450"/>
    </contour>
    <contour>
      <point x="623" y="360" type="curve" smooth="yes"/>
      <point x="511" y="360"/>
      <point x="431" y="438"/>
      <point x="431" y="550" type="curve" smooth="yes"/>
      <point x="431" y="662"/>
      <point x="511" y="740"/>
      <point x="623" y="740" type="curve" smooth="yes"/>
      <point x="735" y="740"/>
      <point x="815" y="662"/>
      <point x="815" y="550" type="curve" smooth="yes"/>
      <point x="815" y="438"/>
      <point x="735" y="360"/>
    </contour>
  </outline>
</glyph>
<glyph name="ge-cy.loclBGR" format="2">
  <advance width="1086"/>
  <anchor x="544" y="0" name="bottom"/>
  <anchor x="536" y="1040" name="top"/>
  <outline>
    <contour>
      <point x="538" y="-28" type="curve" smooth="yes"/>
      <point x="718" y="-28"/>
      <point x="862" y="6"/>
      <point x="986" y="74" type="curve"/>
      <point x="986" y="376" type="line"/>
      <point x="894" y="306"/>
      <point x="738" y="264"/>
      <point x="586" y="264" type="curve" smooth="yes"/>
      <point x="496" y="264"/>
      <point x="456" y="286"/>
      <point x="456" y="326" type="curve" smooth="yes"/>
      <point x="456" y="362"/>
      <point x="476" y="372"/>
      <point x="572" y="400" type="curve" smooth="yes"/>
      <point x="864" y="490"/>
      <point x="978" y="592"/>
      <point x="978" y="770" type="curve" smooth="yes"/>
      <point x="978" y="968"/>
      <point x="806" y="1080"/>
      <point x="540" y="1080" type="curve" smooth="yes"/>
      <point x="386" y="1080"/>
      <point x="246" y="1046"/>
      <point x="134" y="986" type="curve"/>
      <point x="134" y="686" type="line"/>
      <point x="206" y="746"/>
      <point x="346" y="788"/>
      <point x="478" y="788" type="curve" smooth="yes"/>
      <point x="564" y="788"/>
      <point x="610" y="764"/>
      <point x="610" y="726" type="curve" smooth="yes"/>
      <point x="610" y="690"/>
      <point x="584" y="676"/>
      <point x="498" y="654" type="curve" smooth="yes"/>
      <point x="204" y="568"/>
      <point x="88" y="466"/>
      <point x="88" y="290" type="curve" smooth="yes"/>
      <point x="88" y="86"/>
      <point x="266" y="-28"/>
    </contour>
  </outline>
</glyph>
<glyph name="gravecomb.narrow" format="2">
  <anchor x="-638" y="1040" name="_top"/>
  <outline>
    <contour>
      <point x="-808" y="1170" type="line"/>
      <point x="-442" y="1170" type="line"/>
      <point x="-614" y="1544" type="line"/>
      <point x="-1014" y="1544" type="line"/>
    </contour>
  </outline>
</glyph>
<glyph name="hardsign-cy.loclBGR" format="2">
  <advance width="1361"/>
  <outline>
    <contour>
      <point x="821" y="-30" type="curve" smooth="yes"/>
      <point x="1113" y="-30"/>
      <point x="1323" y="164"/>
      <point x="1323" y="388" type="curve" smooth="yes"/>
      <point x="1323" y="618"/>
      <point x="1135" y="766"/>
      <point x="881" y="766" type="curve" smooth="yes"/>
      <point x="787" y="766"/>
      <point x="699" y="756"/>
      <point x="631" y="732" type="curve"/>
      <point x="707" y="572" type="line"/>
      <point x="707" y="1040" type="line"/>
      <point x="307" y="1040" type="line"/>
      <point x="307" y="396" type="line" smooth="yes"/>
      <point x="307" y="126"/>
      <point x="517" y="-30"/>
    </contour>
    <contour>
      <point x="821" y="258" type="curve" smooth="yes"/>
      <point x="745" y="258"/>
      <point x="679" y="302"/>
      <point x="679" y="368" type="curve" smooth="yes"/>
      <point x="679" y="436"/>
      <point x="745" y="476"/>
      <point x="821" y="476" type="curve" smooth="yes"/>
      <point x="893" y="476"/>
      <point x="963" y="436"/>
      <point x="963" y="368" type="curve" smooth="yes"/>
      <point x="963" y="302"/>
      <point x="895" y="258"/>
    </contour>
    <contour>
      <point x="1" y="728" type="line"/>
      <point x="307" y="728" type="line"/>
      <point x="707" y="1040" type="line"/>
      <point x="81" y="1040" type="line"/>
    </contour>
  </outline>
</glyph>
<glyph name="hookabovecomb.case" format="2">
  <anchor x="-824" y="1400" name="_top"/>
  <outline>
    <contour>
      <point x="-954" y="1508" type="curve"/>
      <point x="-702" y="1508" type="line"/>
      <point x="-724" y="1542"/>
      <point x="-712" y="1562"/>
      <point x="-642" y="1596" type="curve" smooth="yes"/>
      <point x="-548" y="1640"/>
      <point x="-518" y="1688"/>
      <point x="-518" y="1760" type="curve" smooth="yes"/>
      <point x="-518" y="1872"/>
      <point x="-636" y="1940"/>
      <point x="-824" y="1940" type="curve" smooth="yes"/>
      <point x="-920" y="1940"/>
      <point x="-1030" y="1918"/>
      <point x="-1102" y="1882" type="curve"/>
      <point x="-1102" y="1690" type="line"/>
      <point x="-1044" y="1712"/>
      <point x="-992" y="1726"/>
      <point x="-906" y="1726" type="curve" smooth="yes"/>
      <point x="-868" y="1726"/>
      <point x="-836" y="1718"/>
      <point x="-836" y="1704" type="curve" smooth="yes"/>
      <point x="-836" y="1690"/>
      <point x="-850" y="1680"/>
      <point x="-896" y="1668" type="curve" smooth="yes"/>
      <point x="-988" y="1642"/>
      <point x="-1006" y="1590"/>
    </contour>
  </outline>
</glyph>
<glyph name="horncomb.alt_case" format="2">
  <anchor x="-389" y="1400" name="_horn"/>
  <outline>
    <contour>
      <point x="-287" y="1036" type="curve" smooth="yes"/>
      <point x="-95" y="1036"/>
      <point x="35" y="1166"/>
      <point x="35" y="1336" type="curve" smooth="yes"/>
      <point x="35" y="1440"/>
      <point x="-13" y="1564"/>
      <point x="-111" y="1660" type="curve"/>
      <point x="-339" y="1532" type="line"/>
      <point x="-285" y="1466"/>
      <point x="-263" y="1408"/>
      <point x="-263" y="1362" type="curve" smooth="yes"/>
      <point x="-263" y="1306"/>
      <point x="-299" y="1268"/>
      <point x="-359" y="1268" type="curve" smooth="yes"/>
      <point x="-409" y="1268"/>
      <point x="-471" y="1294"/>
      <point x="-549" y="1324" type="curve"/>
      <point x="-549" y="1092" type="line"/>
      <point x="-459" y="1062"/>
      <point x="-371" y="1036"/>
    </contour>
  </outline>
</glyph>
<glyph name="horncomb.case" format="2">
  <anchor x="-430" y="1400" name="_horn"/>
  <outline>
    <contour>
      <point x="-238" y="1076" type="curve" smooth="yes"/>
      <point x="-46" y="1076"/>
      <point x="84" y="1198"/>
      <point x="84" y="1356" type="curve" smooth="yes"/>
      <point x="84" y="1424"/>
      <point x="61" y="1501"/>
      <point x="13" y="1572" type="curve"/>
      <point x="-290" y="1572" type="line"/>
      <point x="-244" y="1510"/>
      <point x="-214" y="1442"/>
      <point x="-214" y="1391" type="curve" smooth="yes"/>
      <point x="-214" y="1342"/>
      <point x="-242" y="1308"/>
      <point x="-310" y="1308" type="curve" smooth="yes"/>
      <point x="-416" y="1308"/>
      <point x="-574" y="1430"/>
      <point x="-836" y="1430" type="curve"/>
      <point x="-834" y="1212" type="line"/>
      <point x="-636" y="1212"/>
      <point x="-430" y="1076"/>
    </contour>
  </outline>
</glyph>
<glyph name="iu-cy.loclBGR" format="2">
  <advance width="1886"/>
  <anchor x="328" y="0" name="bottom"/>
  <anchor x="528" y="1440" name="caron"/>
  <anchor x="328" y="1440" name="top"/>
  <outline>
    <contour>
      <point x="1248" y="-30" type="curve" smooth="yes"/>
      <point x="1596" y="-30"/>
      <point x="1836" y="232"/>
      <point x="1836" y="520" type="curve" smooth="yes"/>
      <point x="1836" y="820"/>
      <point x="1596" y="1070"/>
      <point x="1248" y="1070" type="curve" smooth="yes"/>
      <point x="900" y="1070"/>
      <point x="660" y="808"/>
      <point x="660" y="520" type="curve" smooth="yes"/>
      <point x="660" y="220"/>
      <point x="900" y="-30"/>
    </contour>
    <contour>
      <point x="1248" y="310" type="curve" smooth="yes"/>
      <point x="1136" y="310"/>
      <point x="1048" y="390"/>
      <point x="1048" y="520" type="curve" smooth="yes"/>
      <point x="1048" y="650"/>
      <point x="1134" y="730"/>
      <point x="1248" y="730" type="curve" smooth="yes"/>
      <point x="1362" y="730"/>
      <point x="1448" y="650"/>
      <point x="1448" y="520" type="curve" smooth="yes"/>
      <point x="1448" y="390"/>
      <point x="1360" y="310"/>
    </contour>
    <contour>
      <point x="496" y="682" type="line"/>
      <point x="496" y="370" type="line"/>
      <point x="848" y="370" type="line"/>
      <point x="848" y="682" type="line"/>
    </contour>
    <component base="l"/>
  </outline>
</glyph>
<glyph name="jdotless.calt" format="2">
  <advance width="656"/>
  <anchor x="328" y="1040" name="top"/>
  <outline>
    <contour>
      <point x="156" y="-450" type="curve" smooth="yes"/>
      <point x="376" y="-450"/>
      <point x="528" y="-326"/>
      <point x="528" y="-86" type="curve" smooth="yes"/>
      <point x="528" y="1100" type="line"/>
      <point x="128" y="914" type="line"/>
      <point x="128" y="-54" type="line" smooth="yes"/>
      <point x="128" y="-103"/>
      <point x="106" y="-126"/>
      <point x="58" y="-126" type="curve" smooth="yes"/>
      <point x="37" y="-126"/>
      <point x="19" y="-124"/>
      <point x="0" y="-118" type="curve"/>
      <point x="0" y="-435" type="line"/>
      <point x="45" y="-446"/>
      <point x="93" y="-450"/>
    </contour>
  </outline>
</glyph>
<glyph name="macroncomb.narrow" format="2">
  <anchor x="-638" y="1040" name="_top"/>
  <outline>
    <contour>
      <point x="-988" y="1230" type="line"/>
      <point x="-286" y="1230" type="line"/>
      <point x="-286" y="1462" type="line"/>
      <point x="-988" y="1462" type="line"/>
    </contour>
  </outline>
</glyph>
<glyph name="nine.ss02" format="2">
  <advance width="1274"/>
  <outline>
    <contour>
      <point x="238" y="0" type="line"/>
      <point x="652" y="0" type="line"/>
      <point x="954" y="414" type="line" smooth="yes"/>
      <point x="1068" y="570"/>
      <point x="1188" y="736"/>
      <point x="1188" y="932" type="curve" smooth="yes"/>
      <point x="1188" y="1208"/>
      <point x="962" y="1430"/>
      <point x="646" y="1430" type="curve" smooth="yes"/>
      <point x="328" y="1430"/>
      <point x="92" y="1214"/>
      <point x="92" y="936" type="curve" smooth="yes"/>
      <point x="92" y="674"/>
      <point x="306" y="484"/>
      <point x="562" y="484" type="curve" smooth="yes"/>
      <point x="644" y="484"/>
      <point x="748" y="504"/>
      <point x="832" y="544" type="curve"/>
      <point x="708" y="630" type="line"/>
    </contour>
    <contour>
      <point x="642" y="756" type="curve" smooth="yes"/>
      <point x="540" y="756"/>
      <point x="460" y="818"/>
      <point x="460" y="938" type="curve" smooth="yes"/>
      <point x="460" y="1054"/>
      <point x="546" y="1118"/>
      <point x="640" y="1118" type="curve" smooth="yes"/>
      <point x="736" y="1118"/>
      <point x="820" y="1054"/>
      <point x="820" y="938" type="curve" smooth="yes"/>
      <point x="820" y="822"/>
      <point x="740" y="756"/>
    </contour>
  </outline>
</glyph>
<glyph name="one.numr" format="2">
  <advance width="638"/>
  <outline>
    <contour>
      <point x="274" y="490" type="line"/>
      <point x="512" y="490" type="line"/>
      <point x="512" y="1420" type="line"/>
      <point x="496" y="1420" type="line"/>
      <point x="78" y="1280" type="line"/>
      <point x="78" y="1050" type="line"/>
      <point x="274" y="1112" type="line"/>
    </contour>
  </outline>
</glyph>
<glyph name="sha-cy.loclBGR" format="2">
  <advance width="2008"/>
  <anchor x="1880" y="0" name="descender"/>
  <anchor x="1000" y="1040" name="top"/>
  <outline>
    <contour>
      <point x="520" y="-30" type="curve" smooth="yes"/>
      <point x="680" y="-30"/>
      <point x="824" y="36"/>
      <point x="890" y="154" type="curve"/>
      <point x="928" y="38"/>
      <point x="1048" y="-30"/>
      <point x="1188" y="-30" type="curve" smooth="yes"/>
      <point x="1298" y="-30"/>
      <point x="1414" y="24"/>
      <point x="1480" y="120" type="curve"/>
      <point x="1480" y="0" type="line"/>
      <point x="1880" y="0" type="line"/>
      <point x="1880" y="1100" type="line"/>
      <point x="1480" y="914" type="line"/>
      <point x="1480" y="454" type="line" smooth="yes"/>
      <point x="1480" y="388"/>
      <point x="1422" y="330"/>
      <point x="1344" y="330" type="curve" smooth="yes"/>
      <point x="1246" y="330"/>
      <point x="1200" y="394"/>
      <point x="1200" y="492" type="curve" smooth="yes"/>
      <point x="1200" y="1100" type="line"/>
      <point x="800" y="914" type="line"/>
      <point x="800" y="454" type="line" smooth="yes"/>
      <point x="800" y="388"/>
      <point x="742" y="330"/>
      <point x="664" y="330" type="curve" smooth="yes"/>
      <point x="566" y="330"/>
      <point x="520" y="394"/>
      <point x="520" y="492" type="curve" smooth="yes"/>
      <point x="520" y="1100" type="line"/>
      <point x="120" y="914" type="line"/>
      <point x="120" y="378" type="line" smooth="yes"/>
      <point x="120" y="166"/>
      <point x="210" y="-30"/>
    </contour>
  </outline>
</glyph>
<glyph name="softsign-cy.loclBGR" format="2">
  <advance width="1169"/>
  <guideline x="-99" y="-82" angle="0"/>
  <outline>
    <contour>
      <point x="629" y="-30" type="curve" smooth="yes"/>
      <point x="921" y="-30"/>
      <point x="1131" y="164"/>
      <point x="1131" y="388" type="curve" smooth="yes"/>
      <point x="1131" y="618"/>
      <point x="943" y="766"/>
      <point x="689" y="766" type="curve" smooth="yes"/>
      <point x="595" y="766"/>
      <point x="507" y="756"/>
      <point x="439" y="732" type="curve"/>
      <point x="515" y="572" type="line"/>
      <point x="515" y="1100" type="line"/>
      <point x="115" y="914" type="line"/>
      <point x="115" y="396" type="line" smooth="yes"/>
      <point x="115" y="126"/>
      <point x="325" y="-30"/>
    </contour>
    <contour>
      <point x="629" y="258" type="curve" smooth="yes"/>
      <point x="553" y="258"/>
      <point x="487" y="302"/>
      <point x="487" y="368" type="curve" smooth="yes"/>
      <point x="487" y="436"/>
      <point x="553" y="476"/>
      <point x="629" y="476" type="curve" smooth="yes"/>
      <point x="701" y="476"/>
      <point x="771" y="436"/>
      <point x="771" y="368" type="curve" smooth="yes"/>
      <point x="771" y="302"/>
      <point x="703" y="258"/>
    </contour>
  </outline>
</glyph>
<glyph name="three.dnom" format="2">
  <advance width="828"/>
  <outline>
    <contour>
      <point x="376" y="-20" type="curve" smooth="yes"/>
      <point x="588" y="-20"/>
      <point x="740" y="104"/>
      <point x="740" y="272" type="curve" smooth="yes"/>
      <point x="740" y="430"/>
      <point x="622" y="522"/>
      <point x="502" y="538" type="curve"/>
      <point x="698" y="718" type="line"/>
      <point x="698" y="910" type="line"/>
      <point x="100" y="910" type="line"/>
      <point x="48" y="700" type="line"/>
      <point x="410" y="700" type="line"/>
      <point x="190" y="536" type="line"/>
      <point x="258" y="374" type="line"/>
      <point x="292" y="384"/>
      <point x="334" y="390"/>
      <point x="368" y="390" type="curve" smooth="yes"/>
      <point x="444" y="390"/>
      <point x="498" y="354"/>
      <point x="498" y="292" type="curve" smooth="yes"/>
      <point x="498" y="236"/>
      <point x="440" y="198"/>
      <point x="360" y="198" type="curve" smooth="yes"/>
      <point x="260" y="198"/>
      <point x="162" y="234"/>
      <point x="110" y="292" type="curve"/>
      <point x="110" y="47" type="line"/>
      <point x="176" y="8"/>
      <point x="277" y="-20"/>
    </contour>
  </outline>
</glyph>
<glyph name="three.numr" format="2">
  <advance width="828"/>
  <outline>
    <contour>
      <point x="376" y="470" type="curve" smooth="yes"/>
      <point x="588" y="470"/>
      <point x="740" y="594"/>
      <point x="740" y="762" type="curve" smooth="yes"/>
      <point x="740" y="920"/>
      <point x="622" y="1012"/>
      <point x="502" y="1028" type="curve"/>
      <point x="698" y="1208" type="line"/>
      <point x="698" y="1400" type="line"/>
      <point x="100" y="1400" type="line"/>
      <point x="48" y="1190" type="line"/>
      <point x="410" y="1190" type="line"/>
      <point x="190" y="1026" type="line"/>
      <point x="258" y="864" type="line"/>
      <point x="292" y="874"/>
      <point x="334" y="880"/>
      <point x="368" y="880" type="curve" smooth="yes"/>
      <point x="444" y="880"/>
      <point x="498" y="844"/>
      <point x="498" y="782" type="curve" smooth="yes"/>
      <point x="498" y="726"/>
      <point x="440" y="688"/>
      <point x="360" y="688" type="curve" smooth="yes"/>
      <point x="262" y="688"/>
      <point x="162" y="724"/>
      <point x="110" y="782" type="curve"/>
      <point x="110" y="537" type="line"/>
      <point x="176" y="498"/>
      <point x="277" y="470"/>
    </contour>
  </outline>
</glyph>
<glyph name="tildecomb.case" format="2">
  <anchor x="-832" y="1400" name="_top"/>
  <anchor x="-832" y="1802" name="top"/>
  <outline>
    <contour>
      <point x="-1154" y="1472" type="line"/>
      <point x="-1122" y="1560"/>
      <point x="-1068" y="1598"/>
      <point x="-1004" y="1598" type="curve" smooth="yes"/>
      <point x="-900" y="1598"/>
      <point x="-786" y="1498"/>
      <point x="-638" y="1498" type="curve" smooth="yes"/>
      <point x="-498" y="1498"/>
      <point x="-386" y="1574"/>
      <point x="-360" y="1726" type="curve"/>
      <point x="-508" y="1896" type="line"/>
      <point x="-538" y="1808"/>
      <point x="-588" y="1772"/>
      <point x="-650" y="1772" type="curve" smooth="yes"/>
      <point x="-760" y="1772"/>
      <point x="-856" y="1874"/>
      <point x="-1002" y="1874" type="curve" smooth="yes"/>
      <point x="-1134" y="1874"/>
      <point x="-1242" y="1794"/>
      <point x="-1304" y="1640" type="curve"/>
    </contour>
  </outline>
</glyph>
<glyph name="tildecomb.narrow" format="2">
  <anchor x="-639" y="1040" name="_top"/>
  <anchor x="-639" y="1464" name="top"/>
  <outline>
    <contour>
      <point x="-1024" y="1178" type="line"/>
      <point x="-974" y="1240"/>
      <point x="-908" y="1280"/>
      <point x="-839" y="1280" type="curve" smooth="yes"/>
      <point x="-733" y="1280"/>
      <point x="-594" y="1180"/>
      <point x="-458" y="1180" type="curve" smooth="yes"/>
      <point x="-372" y="1180"/>
      <point x="-307" y="1218"/>
      <point x="-253" y="1277" type="curve"/>
      <point x="-253" y="1536" type="line"/>
      <point x="-302" y="1474"/>
      <point x="-368" y="1434"/>
      <point x="-437" y="1434" type="curve" smooth="yes"/>
      <point x="-543" y="1434"/>
      <point x="-682" y="1534"/>
      <point x="-818" y="1534" type="curve" smooth="yes"/>
      <point x="-908" y="1534"/>
      <point x="-972" y="1494"/>
      <point x="-1024" y="1438" type="curve"/>
    </contour>
  </outline>
</glyph>
<glyph name="tonos.case" format="2">
  <advance width="456"/>
  <anchor x="484" y="1400" name="_topleft"/>
  <outline>
    <contour>
      <point x="42" y="1040" type="line"/>
      <point x="362" y="1040" type="line"/>
      <point x="484" y="1470" type="line"/>
      <point x="128" y="1470" type="line"/>
    </contour>
  </outline>
</glyph>
<glyph name="ve-cy.loclBGR" format="2">
  <advance width="1295"/>
  <outline>
    <contour>
      <point x="673" y="-30" type="curve" smooth="yes"/>
      <point x="1011" y="-30"/>
      <point x="1225" y="158"/>
      <point x="1225" y="434" type="curve" smooth="yes"/>
      <point x="1225" y="584"/>
      <point x="1143" y="720"/>
      <point x="995" y="786" type="curve"/>
      <point x="1115" y="848"/>
      <point x="1187" y="966"/>
      <point x="1187" y="1088" type="curve" smooth="yes"/>
      <point x="1187" y="1322"/>
      <point x="973" y="1470"/>
      <point x="679" y="1470" type="curve" smooth="yes"/>
      <point x="353" y="1470"/>
      <point x="113" y="1298"/>
      <point x="113" y="912" type="curve" smooth="yes"/>
      <point x="113" y="506" type="line" smooth="yes"/>
      <point x="113" y="128"/>
      <point x="357" y="-30"/>
    </contour>
    <contour>
      <point x="669" y="308" type="curve" smooth="yes"/>
      <point x="559" y="308"/>
      <point x="493" y="370"/>
      <point x="493" y="486" type="curve" smooth="yes"/>
      <point x="493" y="970" type="line" smooth="yes"/>
      <point x="493" y="1070"/>
      <point x="553" y="1130"/>
      <point x="657" y="1130" type="curve" smooth="yes"/>
      <point x="759" y="1130"/>
      <point x="809" y="1088"/>
      <point x="809" y="1008" type="curve" smooth="yes"/>
      <point x="809" y="930"/>
      <point x="751" y="880"/>
      <point x="649" y="880" type="curve" smooth="yes"/>
      <point x="463" y="880" type="line"/>
      <point x="463" y="588" type="line"/>
      <point x="681" y="588" type="line" smooth="yes"/>
      <point x="793" y="588"/>
      <point x="849" y="540"/>
      <point x="849" y="450" type="curve" smooth="yes"/>
      <point x="849" y="366"/>
      <point x="783" y="308"/>
    </contour>
  </outline>
</glyph>
<glyph name="ze-cy.loclBGR" format="2">
  <advance width="1108"/>
  <guideline x="98" y="164" angle="257.7352"/>
  <anchor x="464" y="-420" name="bottom"/>
  <anchor x="474" y="1040" name="top"/>
  <outline>
    <contour>
      <point x="448" y="-450" type="curve" smooth="yes"/>
      <point x="804" y="-450"/>
      <point x="1028" y="-260"/>
      <point x="1028" y="24" type="curve" smooth="yes"/>
      <point x="1028" y="182"/>
      <point x="934" y="310"/>
      <point x="774" y="376" type="curve"/>
      <point x="904" y="440"/>
      <point x="986" y="560"/>
      <point x="986" y="706" type="curve" smooth="yes"/>
      <point x="986" y="932"/>
      <point x="800" y="1080"/>
      <point x="508" y="1080" type="curve" smooth="yes"/>
      <point x="342" y="1080"/>
      <point x="200" y="1042"/>
      <point x="82" y="976" type="curve"/>
      <point x="82" y="612" type="line"/>
      <point x="154" y="688"/>
      <point x="288" y="740"/>
      <point x="414" y="740" type="curve" smooth="yes"/>
      <point x="538" y="740"/>
      <point x="598" y="698"/>
      <point x="598" y="610" type="curve" smooth="yes"/>
      <point x="598" y="530"/>
      <point x="530" y="484"/>
      <point x="410" y="484" type="curve" smooth="yes"/>
      <point x="230" y="484" type="line"/>
      <point x="162" y="172" type="line"/>
      <point x="442" y="172" type="line" smooth="yes"/>
      <point x="574" y="172"/>
      <point x="640" y="124"/>
      <point x="640" y="38" type="curve" smooth="yes"/>
      <point x="640" y="-58"/>
      <point x="556" y="-110"/>
      <point x="422" y="-110" type="curve" smooth="yes"/>
      <point x="282" y="-110"/>
      <point x="136" y="-64"/>
      <point x="40" y="10" type="curve"/>
      <point x="40" y="-356" type="line"/>
      <point x="164" y="-420"/>
      <point x="306" y="-450"/>
    </contour>
  </outline>
</glyph>
